<svg xmlns="http://www.w3.org/2000/svg" viewBox="0 0 88 89"><defs><style>.cls-1{fill:#272626;}</style></defs><path class="cls-1" d="M19.25,13.51h-4A1.49,1.49,0,0,0,13.76,15v4a1.49,1.49,0,1,0,3,0V16.49h2.51a1.49,1.49,0,0,0,0-3Z"/><path class="cls-1" d="M40.46,16.49h7.08a1.49,1.49,0,0,0,0-3H40.46a1.49,1.49,0,0,0,0,3Z"/><path class="cls-1" d="M26.32,16.49h7.07a1.49,1.49,0,1,0,0-3H26.32a1.49,1.49,0,0,0,0,3Z"/><path class="cls-1" d="M61.68,13.51H54.61a1.49,1.49,0,0,0,0,3h7.07a1.49,1.49,0,1,0,0-3Z"/><path class="cls-1" d="M72.75,13.51h-4a1.49,1.49,0,1,0,0,3h2.51V19a1.49,1.49,0,0,0,3,0V15A1.49,1.49,0,0,0,72.75,13.51Z"/><path class="cls-1" d="M72.75,24.79a1.5,1.5,0,0,0-1.49,1.5v7.28a1.49,1.49,0,0,0,3,0V26.29A1.5,1.5,0,0,0,72.75,24.79Z"/><path class="cls-1" d="M72.75,39.36a1.5,1.5,0,0,0-1.49,1.5v7.28a1.49,1.49,0,0,0,3,0V40.86A1.5,1.5,0,0,0,72.75,39.36Z"/><path class="cls-1" d="M72.75,53.94a1.49,1.49,0,0,0-1.49,1.49v7.28a1.49,1.49,0,1,0,3,0V55.43A1.49,1.49,0,0,0,72.75,53.94Z"/><path class="cls-1" d="M72.75,68.51A1.49,1.49,0,0,0,71.26,70v2.51H68.75a1.49,1.49,0,0,0,0,3h4A1.49,1.49,0,0,0,74.24,74V70A1.49,1.49,0,0,0,72.75,68.51Z"/><path class="cls-1" d="M61.68,72.51H54.61a1.49,1.49,0,0,0,0,3h7.07a1.49,1.49,0,1,0,0-3Z"/><path class="cls-1" d="M33.39,72.51H26.32a1.49,1.49,0,0,0,0,3h7.07a1.49,1.49,0,1,0,0-3Z"/><path class="cls-1" d="M47.54,72.51H40.46a1.49,1.49,0,0,0,0,3h7.08a1.49,1.49,0,1,0,0-3Z"/><path class="cls-1" d="M19.25,72.51H16.74V70a1.49,1.49,0,1,0-3,0v4a1.49,1.49,0,0,0,1.49,1.49h4a1.49,1.49,0,1,0,0-3Z"/><path class="cls-1" d="M15.25,49.64a1.5,1.5,0,0,0,1.49-1.5V40.86a1.49,1.49,0,1,0-3,0v7.28A1.5,1.5,0,0,0,15.25,49.64Z"/><path class="cls-1" d="M15.25,35.06a1.49,1.49,0,0,0,1.49-1.49V26.29a1.49,1.49,0,1,0-3,0v7.28A1.49,1.49,0,0,0,15.25,35.06Z"/><path class="cls-1" d="M15.25,64.21a1.5,1.5,0,0,0,1.49-1.5V55.43a1.49,1.49,0,1,0-3,0v7.28A1.5,1.5,0,0,0,15.25,64.21Z"/><path class="cls-1" d="M28.18,55.53a6.38,6.38,0,0,0,5.66,3.34H53.9A6.46,6.46,0,0,0,59.36,49l-10-15.86a6.46,6.46,0,0,0-10.91,0L28.38,49A6.38,6.38,0,0,0,28.18,55.53Zm2.72-5,10-15.86a3.47,3.47,0,0,1,5.86,0l10,15.86a3.47,3.47,0,0,1-2.94,5.32H33.84a3.47,3.47,0,0,1-2.94-5.32Z"/></svg>