<svg xmlns="http://www.w3.org/2000/svg" viewBox="0 0 88 89"><defs><style>.cls-1{fill:#272626;}</style></defs><path class="cls-1" d="M72.81,13.51h-4a1.49,1.49,0,0,0,0,3h2.51V19a1.49,1.49,0,1,0,3,0V15A1.49,1.49,0,0,0,72.81,13.51Z"/><path class="cls-1" d="M67.92,59l-3.75-6.49a1.51,1.51,0,0,0-1.3-.75h-7.5a1.5,1.5,0,0,0-1.29.75L50.33,59a1.47,1.47,0,0,0,0,1.49l3.75,6.5a1.5,1.5,0,0,0,1.29.75h7.5a1.51,1.51,0,0,0,1.3-.75l3.75-6.5A1.52,1.52,0,0,0,67.92,59ZM62,64.7H56.23l-2.88-5,2.88-5H62l2.89,5Z"/><path class="cls-1" d="M59.12,38.88a8.68,8.68,0,1,0-8.68-8.68A8.68,8.68,0,0,0,59.12,38.88Zm0-14.38a5.7,5.7,0,1,1-5.69,5.7A5.71,5.71,0,0,1,59.12,24.5Z"/><path class="cls-1" d="M72.81,25a1.5,1.5,0,0,0-1.49,1.5v7.46a1.49,1.49,0,1,0,3,0V26.47A1.49,1.49,0,0,0,72.81,25Z"/><path class="cls-1" d="M72.81,39.91a1.49,1.49,0,0,0-1.49,1.49v2.51H68.81a1.49,1.49,0,0,0,0,3h2.51V49.4a1.49,1.49,0,1,0,3,0v-8A1.48,1.48,0,0,0,72.81,39.91Z"/><path class="cls-1" d="M55,43.91a1.49,1.49,0,1,0,0,3H61.9a1.49,1.49,0,0,0,0-3Z"/><path class="cls-1" d="M72.81,54.77a1.5,1.5,0,0,0-1.49,1.5v6.86a1.49,1.49,0,1,0,3,0V56.27A1.49,1.49,0,0,0,72.81,54.77Z"/><path class="cls-1" d="M72.81,68.51A1.49,1.49,0,0,0,71.32,70v2.51H68.81a1.49,1.49,0,0,0,0,3h4A1.49,1.49,0,0,0,74.3,74V70A1.49,1.49,0,0,0,72.81,68.51Z"/><path class="cls-1" d="M61.9,72.51H55a1.49,1.49,0,0,0,0,3H61.9a1.49,1.49,0,1,0,0-3Z"/><path class="cls-1" d="M38.08,32.07l-5.07-8a4,4,0,0,0-3.38-1.86h0a4,4,0,0,0-3.38,1.86h0l-5.08,8a4,4,0,0,0,3.38,6.14H34.7a4,4,0,0,0,3.5-2.08A3.92,3.92,0,0,0,38.08,32.07ZM35.59,34.7a1,1,0,0,1-.89.52H24.55a1,1,0,0,1-.89-.52,1,1,0,0,1,0-1l5.07-8a1,1,0,0,1,1.71,0l5.08,8A1,1,0,0,1,35.59,34.7Z"/><path class="cls-1" d="M36,51.89H23.3a1.49,1.49,0,0,0-1.49,1.49V66a1.49,1.49,0,0,0,1.49,1.49H36A1.49,1.49,0,0,0,37.44,66V53.38A1.49,1.49,0,0,0,36,51.89ZM34.46,64.53H24.8V54.87h9.66Z"/><path class="cls-1" d="M15.19,20.49A1.49,1.49,0,0,0,16.68,19V16.49h2.51a1.49,1.49,0,0,0,0-3h-4A1.49,1.49,0,0,0,13.7,15v4A1.49,1.49,0,0,0,15.19,20.49Z"/><path class="cls-1" d="M26.15,16.49h7a1.49,1.49,0,1,0,0-3h-7a1.49,1.49,0,1,0,0,3Z"/><path class="cls-1" d="M15.19,35.42a1.49,1.49,0,0,0,1.49-1.49V26.47a1.49,1.49,0,1,0-3,0v7.46A1.48,1.48,0,0,0,15.19,35.42Z"/><path class="cls-1" d="M48.06,13.51h-8a1.49,1.49,0,0,0,0,3h2.51V19a1.5,1.5,0,0,0,3,0V16.49h2.5a1.49,1.49,0,1,0,0-3Z"/><path class="cls-1" d="M55,16.49H61.9a1.49,1.49,0,1,0,0-3H55a1.49,1.49,0,1,0,0,3Z"/><path class="cls-1" d="M19.19,43.91H16.68V41.4a1.49,1.49,0,0,0-3,0v8a1.49,1.49,0,0,0,3,0V46.89h2.51a1.49,1.49,0,0,0,0-3Z"/><path class="cls-1" d="M33.11,46.89a1.49,1.49,0,1,0,0-3h-7a1.49,1.49,0,1,0,0,3Z"/><path class="cls-1" d="M33.11,72.51h-7a1.49,1.49,0,1,0,0,3h7a1.49,1.49,0,1,0,0-3Z"/><path class="cls-1" d="M19.19,72.51H16.68V70a1.49,1.49,0,0,0-3,0v4a1.49,1.49,0,0,0,1.49,1.49h4a1.49,1.49,0,1,0,0-3Z"/><path class="cls-1" d="M15.19,64.62a1.49,1.49,0,0,0,1.49-1.49V56.27a1.49,1.49,0,1,0-3,0v6.86A1.48,1.48,0,0,0,15.19,64.62Z"/><path class="cls-1" d="M44.06,35.42a1.49,1.49,0,0,0,1.5-1.49V26.47a1.5,1.5,0,1,0-3,0v7.46A1.49,1.49,0,0,0,44.06,35.42Z"/><path class="cls-1" d="M48.06,43.91h-2.5V41.4a1.5,1.5,0,0,0-3,0v2.51H40.06a1.49,1.49,0,1,0,0,3h2.51V49.4a1.5,1.5,0,0,0,3,0V46.89h2.5a1.49,1.49,0,1,0,0-3Z"/><path class="cls-1" d="M48.06,72.51h-2.5V70a1.5,1.5,0,0,0-3,0v2.51H40.06a1.49,1.49,0,0,0,0,3h8a1.49,1.49,0,1,0,0-3Z"/><path class="cls-1" d="M44.06,64.62a1.49,1.49,0,0,0,1.5-1.49h0V56.27h0a1.5,1.5,0,1,0-3,0h0v6.86h0A1.49,1.49,0,0,0,44.06,64.62Z"/></svg>