<svg id="Layer_1" data-name="Layer 1" xmlns="http://www.w3.org/2000/svg" viewBox="0 0 49.418 61.985"><defs><style>.cls-1{fill:#fff;}.cls-2{fill:#333;}</style></defs><path class="cls-1" d="M47.151,59.019H26.621L26.7,19.762H47.22a2.349,2.349,0,0,1,2.342,2.348l-.069,34.567a2.335,2.335,0,0,1-2.328,2.342Z" transform="translate(-19.658 -12.909)"/><path class="cls-2" d="M65.588,22.593l-6.2-6.2a11.9,11.9,0,0,0-8.41-3.485H19.658V66.36l14.7,8.534H57.516a11.585,11.585,0,0,0,11.56-11.609c0-.077,0-.154,0-.23V30.933A11.913,11.913,0,0,0,65.588,22.593ZM54.569,59.535a4.18,4.18,0,0,1-4.153,4.208h-28.1V15.533H50.381a4.181,4.181,0,0,1,4.181,4.181h0Z" transform="translate(-19.658 -12.909)"/><path class="cls-2" d="M47.22,18.743H26.7a1.026,1.026,0,0,0-1.026,1.026l-.076,39.257a1.034,1.034,0,0,0,1.027,1.033h20.53a3.382,3.382,0,0,0,3.375-3.368l.062-34.567A3.374,3.374,0,0,0,47.22,18.75Zm1.267,37.941a1.315,1.315,0,0,1-1.315,1.309H27.654L27.722,20.8h19.5a1.293,1.293,0,0,1,.93.392,1.31,1.31,0,0,1,.385.93Z" transform="translate(-19.658 -12.909)"/><path class="cls-2" d="M41.738,25.54a8.847,8.847,0,0,0-2.755-.344H30.994V38.034h7.961a8.806,8.806,0,0,0,2.755-.324,5.355,5.355,0,0,0,1.956-1.143,6.6,6.6,0,0,0,1.867-5,6.481,6.481,0,0,0-1.791-4.883A5.192,5.192,0,0,0,41.738,25.54ZM38.79,35.334H34.066v-7.4H38.79c2.066,0,3.444,1.143,3.444,3.664S40.76,35.334,38.79,35.334Z" transform="translate(-19.658 -12.909)"/><path class="cls-2" d="M45.386,49.862h0A4.029,4.029,0,0,0,41.194,46H34.747a1.034,1.034,0,0,1-1.033-1.033v-.131a1.034,1.034,0,0,1,1.033-1.033h9.642v-.034H44.4v-3h-.007V40.72H34.61a4.034,4.034,0,0,0-4.029,4.029V45a4.028,4.028,0,0,0,4.056,4h6.4a1.033,1.033,0,0,1,0,2.066H31.049v2.989H41.2c.108,0,.217.005.326,0a4.026,4.026,0,0,0,3.859-4.191Z" transform="translate(-19.658 -12.909)"/></svg>