<svg xmlns="http://www.w3.org/2000/svg" viewBox="0 0 88 89"><defs><style>.cls-1{fill:#272626;}</style></defs><path class="cls-1" d="M44.35,69.36a1.49,1.49,0,0,0-2.09,2.12l.71.71A27.56,27.56,0,0,1,23.12,26.57a1.49,1.49,0,1,0-2.25-2A30.54,30.54,0,0,0,43.35,75.18L42,76.26a1.5,1.5,0,0,0-.2,2.1A1.48,1.48,0,0,0,43,78.9a1.46,1.46,0,0,0,.95-.34l4-3.32a1.52,1.52,0,0,0,.54-1.09A1.48,1.48,0,0,0,48.06,73Z"/><path class="cls-1" d="M44.65,13.82,46,12.74a1.5,1.5,0,0,0,.2-2.1,1.48,1.48,0,0,0-2.1-.2l-4,3.32a1.52,1.52,0,0,0-.54,1.09A1.46,1.46,0,0,0,39.94,16l3.71,3.67a1.48,1.48,0,0,0,2.1,0,1.49,1.49,0,0,0,0-2.11L45,16.81A27.56,27.56,0,0,1,64.88,62.43,1.49,1.49,0,0,0,66,64.9a1.47,1.47,0,0,0,1.12-.51A30.54,30.54,0,0,0,44.65,13.82Z"/><path class="cls-1" d="M61.67,66.18a4.44,4.44,0,0,0-3.35-.78l-.09,0-2.1-3.65A21,21,0,0,0,36.33,25l-2.44-4.22a2.43,2.43,0,0,0,.26-.29,4.49,4.49,0,1,0-3.67,1.88,4.74,4.74,0,0,0,.75-.06l.09,0,2.3,4a21,21,0,0,0,20,37l2.08,3.59a3.45,3.45,0,0,0-.26.28,4.5,4.5,0,0,0,3.66,7.11,4.59,4.59,0,0,0,.73-.06,4.5,4.5,0,0,0,3.7-5.17A4.44,4.44,0,0,0,61.67,66.18Zm-32-47a1.5,1.5,0,0,1-.61-1,1.51,1.51,0,0,1,1.24-1.74h0l.25,0a1.51,1.51,0,1,1-.88,2.74Zm18.82,43a23.94,23.94,0,0,0,4.49-8,23.81,23.81,0,0,0,8.44-4.85A18.11,18.11,0,0,1,48.44,62.12Zm-3-6.53a29.81,29.81,0,0,0,3.95-.5A19.69,19.69,0,0,1,45.42,61Zm0-3V46.14h6a26.28,26.28,0,0,1-.9,5.62A26.55,26.55,0,0,1,45.42,52.6Zm9-6.46h5.9a19.77,19.77,0,0,1-6.44,4.45A29.41,29.41,0,0,0,54.44,46.14Zm0-3a29.71,29.71,0,0,0-.55-4.46,19.79,19.79,0,0,1,6.44,4.46Zm-3,0h-6V36.7a25.8,25.8,0,0,1,5.13.83A26.93,26.93,0,0,1,51.46,43.15Zm-6-9.44V28.29a20,20,0,0,1,4,5.91A28.57,28.57,0,0,0,45.42,33.71Zm-3-5.85v5.83a29.93,29.93,0,0,0-4.39.51A19.59,19.59,0,0,1,42.44,27.86Zm0,8.81v6.48H36a26.28,26.28,0,0,1,.9-5.62A25.91,25.91,0,0,1,42.44,36.67ZM33,43.15H27.09a19.77,19.77,0,0,1,6.44-4.45A29.41,29.41,0,0,0,33,43.15Zm0,3a31.06,31.06,0,0,0,.55,4.46,19.79,19.79,0,0,1-6.44-4.46Zm3,0h6.47v6.48a25.91,25.91,0,0,1-5.57-.86A26.28,26.28,0,0,1,36,46.14Zm6.47,9.47v5.81a19.49,19.49,0,0,1-4.39-6.33A29.93,29.93,0,0,0,42.44,55.61ZM61.37,40a23.68,23.68,0,0,0-8.44-4.86,24,24,0,0,0-4.48-8A18.11,18.11,0,0,1,61.37,40ZM38.85,27.32a24.05,24.05,0,0,0-4.36,7.82,24,24,0,0,0-7.87,4.36A18.12,18.12,0,0,1,38.85,27.32ZM26.62,49.8a24.12,24.12,0,0,0,7.87,4.35A24.05,24.05,0,0,0,38.85,62,18.12,18.12,0,0,1,26.62,49.8ZM59.3,71.32a1.52,1.52,0,0,1-1.73-1.25,1.5,1.5,0,0,1,1.24-1.73l.25,0a1.5,1.5,0,0,1,1.49,1.26A1.53,1.53,0,0,1,59.3,71.32Z"/></svg>