<svg xmlns="http://www.w3.org/2000/svg" viewBox="0 0 88 89"><defs><style>.cls-1{fill:#272626;}</style></defs><path class="cls-1" d="M64.89,56.41H49.35a1.5,1.5,0,0,0,0,3H64.89a1.5,1.5,0,0,0,0-3Z"/><path class="cls-1" d="M64.89,50.41H49.35a1.5,1.5,0,0,0,0,3H64.89a1.5,1.5,0,0,0,0-3Z"/><path class="cls-1" d="M64.89,34.41H49.35a1.5,1.5,0,0,0,0,3H64.89a1.5,1.5,0,0,0,0-3Z"/><path class="cls-1" d="M64.89,28.41H49.35a1.5,1.5,0,0,0,0,3H64.89a1.5,1.5,0,0,0,0-3Z"/><path class="cls-1" d="M74,15a1.49,1.49,0,0,0-1.49-1.49h0l-49.67.07h-7.5A1.49,1.49,0,0,0,13.87,15V74a1.49,1.49,0,0,0,1.5,1.49h0l57.27-.08A1.5,1.5,0,0,0,74.13,74ZM16.86,16.53h4.49l.1,56H16.86Zm7.57,56-.09-56,46.71-.07.09,56Z"/><path class="cls-1" d="M36.69,24.22a8.69,8.69,0,1,0,8.68,8.68A8.69,8.69,0,0,0,36.69,24.22Zm0,14.38a5.7,5.7,0,1,1,3.42-10.24L36.29,33l-.84-.85a1.5,1.5,0,0,0-2.11,0,1.48,1.48,0,0,0,0,2.11l2,2a1.49,1.49,0,0,0,1,.44h.07a1.51,1.51,0,0,0,1.08-.54L42,30.79a5.52,5.52,0,0,1,.42,2.11A5.7,5.7,0,0,1,36.69,38.6Z"/><path class="cls-1" d="M36.69,46.22a8.69,8.69,0,1,0,8.68,8.68A8.69,8.69,0,0,0,36.69,46.22Zm5.7,8.68a5.66,5.66,0,0,1-.62,2.56l-7.85-7.53a5.63,5.63,0,0,1,2.77-.72A5.7,5.7,0,0,1,42.39,54.9ZM31,54.9A5.65,5.65,0,0,1,31.78,52l8,7.66a5.64,5.64,0,0,1-3.09.92A5.7,5.7,0,0,1,31,54.9Z"/></svg>