<svg xmlns="http://www.w3.org/2000/svg" viewBox="0 0 88 89"><defs><style>.cls-1{fill:#272626;}</style></defs><path class="cls-1" d="M58,64.32a1.5,1.5,0,0,0-1.5-1.49h-32a1.49,1.49,0,1,0,0,3h32A1.5,1.5,0,0,0,58,64.32Z"/><path class="cls-1" d="M24.46,53.37a1.49,1.49,0,0,0,0,3h9a1.49,1.49,0,1,0,0-3Z"/><path class="cls-1" d="M40.58,56.35H62.46a1.49,1.49,0,1,0,0-3H40.58a1.49,1.49,0,1,0,0,3Z"/><path class="cls-1" d="M50.45,45.4A1.49,1.49,0,0,0,49,43.91H24.46a1.49,1.49,0,0,0,0,3H49A1.49,1.49,0,0,0,50.45,45.4Z"/><path class="cls-1" d="M62.46,43.91H55a1.49,1.49,0,0,0,0,3h7.5a1.49,1.49,0,1,0,0-3Z"/><path class="cls-1" d="M62.39,34.45H24.46a1.49,1.49,0,1,0,0,3H62.39a1.49,1.49,0,1,0,0-3Z"/><path class="cls-1" d="M64.78,61.66l-3.52-2.22A1.49,1.49,0,1,0,59.67,62l3.51,2.23a.13.13,0,0,1,.08.13.17.17,0,0,1-.08.14l-3.51,2.22a1.49,1.49,0,0,0,.8,2.75,1.42,1.42,0,0,0,.79-.23L64.78,67a3.15,3.15,0,0,0,0-5.32Z"/><path class="cls-1" d="M29.76,26.48A1.49,1.49,0,0,0,31.25,28H52.54a1.49,1.49,0,0,0,0-3H31.25A1.49,1.49,0,0,0,29.76,26.48Z"/><path class="cls-1" d="M26.74,31.36a1.54,1.54,0,0,0,.79.23,1.51,1.51,0,0,0,1.27-.7,1.48,1.48,0,0,0-.47-2.05l-3.51-2.23a.13.13,0,0,1-.08-.13.15.15,0,0,1,.08-.14l3.51-2.22a1.49,1.49,0,1,0-1.59-2.52l-3.52,2.22a3.14,3.14,0,0,0,0,5.31Z"/><path class="cls-1" d="M61,22.65l-4,6a1.5,1.5,0,0,0,.42,2.07,1.49,1.49,0,0,0,2.07-.42l4-6A1.49,1.49,0,0,0,61,22.65Z"/><path class="cls-1" d="M19.19,72.51H16.68V70a1.49,1.49,0,0,0-3,0v4a1.49,1.49,0,0,0,1.49,1.49h4a1.49,1.49,0,1,0,0-3Z"/><path class="cls-1" d="M61.72,72.51H54.63a1.49,1.49,0,0,0,0,3h7.09a1.49,1.49,0,1,0,0-3Z"/><path class="cls-1" d="M47.54,72.51H40.46a1.49,1.49,0,1,0,0,3h7.08a1.49,1.49,0,1,0,0-3Z"/><path class="cls-1" d="M33.37,72.51H26.28a1.49,1.49,0,0,0,0,3h7.09a1.49,1.49,0,1,0,0-3Z"/><path class="cls-1" d="M72.81,68.51A1.49,1.49,0,0,0,71.32,70v2.51H68.81a1.49,1.49,0,0,0,0,3h4A1.49,1.49,0,0,0,74.3,74V70A1.49,1.49,0,0,0,72.81,68.51Z"/><path class="cls-1" d="M72.81,53.94a1.49,1.49,0,0,0-1.49,1.49v7.28a1.49,1.49,0,1,0,3,0V55.43A1.48,1.48,0,0,0,72.81,53.94Z"/><path class="cls-1" d="M72.81,39.36a1.5,1.5,0,0,0-1.49,1.5v7.28a1.49,1.49,0,1,0,3,0V40.86A1.49,1.49,0,0,0,72.81,39.36Z"/><path class="cls-1" d="M72.81,24.79a1.5,1.5,0,0,0-1.49,1.5v7.28a1.49,1.49,0,1,0,3,0V26.29A1.49,1.49,0,0,0,72.81,24.79Z"/><path class="cls-1" d="M72.81,13.51h-4a1.49,1.49,0,0,0,0,3h2.51V19a1.49,1.49,0,1,0,3,0V15A1.49,1.49,0,0,0,72.81,13.51Z"/><path class="cls-1" d="M26.28,16.49h7.09a1.49,1.49,0,1,0,0-3H26.28a1.49,1.49,0,0,0,0,3Z"/><path class="cls-1" d="M54.63,16.49h7.09a1.49,1.49,0,1,0,0-3H54.63a1.49,1.49,0,0,0,0,3Z"/><path class="cls-1" d="M40.46,16.49h7.08a1.49,1.49,0,1,0,0-3H40.46a1.49,1.49,0,1,0,0,3Z"/><path class="cls-1" d="M19.19,13.51h-4A1.49,1.49,0,0,0,13.7,15v4a1.49,1.49,0,1,0,3,0V16.49h2.51a1.49,1.49,0,0,0,0-3Z"/><path class="cls-1" d="M15.19,64.21a1.5,1.5,0,0,0,1.49-1.5V55.43a1.49,1.49,0,0,0-3,0v7.28A1.49,1.49,0,0,0,15.19,64.21Z"/><path class="cls-1" d="M15.19,49.64a1.5,1.5,0,0,0,1.49-1.5V40.86a1.49,1.49,0,1,0-3,0v7.28A1.49,1.49,0,0,0,15.19,49.64Z"/><path class="cls-1" d="M15.19,35.06a1.49,1.49,0,0,0,1.49-1.49V26.29a1.49,1.49,0,1,0-3,0v7.28A1.48,1.48,0,0,0,15.19,35.06Z"/></svg>