<svg xmlns="http://www.w3.org/2000/svg" viewBox="0 0 88 89"><defs><style>.cls-1{fill:#272626;}</style></defs><path class="cls-1" d="M32.85,33.28A7.87,7.87,0,1,0,25,25.41,7.88,7.88,0,0,0,32.85,33.28Zm0-12.76A4.89,4.89,0,1,1,28,25.41,4.9,4.9,0,0,1,32.85,20.52Z"/><path class="cls-1" d="M72.23,45.35H34.73a1.49,1.49,0,0,0-1.49,1.49V60H23V47.29l.69.84a1.5,1.5,0,0,0,1.15.54,1.45,1.45,0,0,0,.95-.35,1.5,1.5,0,0,0,.2-2.1l-3.33-4a1.48,1.48,0,0,0-1.08-.54,1.54,1.54,0,0,0-1.13.44l-3.67,3.7a1.49,1.49,0,1,0,2.12,2.1L20,46.79V61.46A1.5,1.5,0,0,0,21.52,63H33.24V73.84a1.49,1.49,0,0,0,1.49,1.49h37.5a1.49,1.49,0,0,0,1.49-1.49v-27A1.49,1.49,0,0,0,72.23,45.35Zm-1.49,3v3H36.22v-3Zm-34.52,24v-18H70.74v18Z"/><path class="cls-1" d="M42.73,57.35a1.49,1.49,0,0,0-1.49,1.49v8a1.49,1.49,0,0,0,3,0v-8A1.49,1.49,0,0,0,42.73,57.35Z"/><path class="cls-1" d="M47.85,57.35a1.49,1.49,0,0,0-1.49,1.49v8a1.5,1.5,0,0,0,3,0v-8A1.5,1.5,0,0,0,47.85,57.35Z"/><path class="cls-1" d="M64.93,57.35H52.85a1.49,1.49,0,0,0-1.49,1.49v8a1.49,1.49,0,0,0,1.49,1.49H64.93a1.49,1.49,0,0,0,1.49-1.49v-8A1.49,1.49,0,0,0,64.93,57.35Zm-1.5,8H54.35v-5h9.08Z"/><path class="cls-1" d="M32.85,37.15c9.16,0,16.51-8.61,18-10.5h11.5V37.33l-.69-.84a1.49,1.49,0,0,0-2.3,1.91l3.33,4a1.48,1.48,0,0,0,1.08.54h.07a1.52,1.52,0,0,0,1.06-.44l3.66-3.7a1.49,1.49,0,1,0-2.11-2.1l-1.11,1.12V25.16a1.5,1.5,0,0,0-1.5-1.49h-13a1.49,1.49,0,0,0-.36,0c-2.09-2.53-9.07-10-17.64-10-10.06,0-17.94,10.41-18.27,10.85a1.47,1.47,0,0,0,0,1.78C14.91,26.75,22.79,37.15,32.85,37.15Zm0-20.5c7,0,13.11,6.37,15.16,8.76-2,2.39-8.15,8.76-15.16,8.76S19.75,27.8,17.7,25.41C19.74,23,25.85,16.65,32.85,16.65Z"/></svg>