<svg xmlns="http://www.w3.org/2000/svg" viewBox="0 0 88 89"><defs><style>.cls-1{fill:#272626;}</style></defs><path class="cls-1" d="M72.75,13.51H15.25A1.49,1.49,0,0,0,13.76,15V74a1.49,1.49,0,0,0,1.49,1.49h57.5A1.49,1.49,0,0,0,74.24,74V15A1.49,1.49,0,0,0,72.75,13.51Zm-1.49,3v5H16.74v-5Zm-54.52,56v-48H71.26v48Z"/><path class="cls-1" d="M23.25,27.51A1.49,1.49,0,0,0,21.76,29V67a1.49,1.49,0,0,0,3,0V29A1.49,1.49,0,0,0,23.25,27.51Z"/><path class="cls-1" d="M29.85,42.49H48.11A1.49,1.49,0,0,0,49.6,41V29a1.49,1.49,0,0,0-1.49-1.49H29.85A1.49,1.49,0,0,0,28.36,29V41A1.49,1.49,0,0,0,29.85,42.49Zm1.5-12H46.62v9H31.35Z"/><path class="cls-1" d="M65.45,39.51h-11a1.49,1.49,0,1,0,0,3h11a1.49,1.49,0,0,0,0-3Z"/><path class="cls-1" d="M65.45,33.51h-11a1.49,1.49,0,1,0,0,3h11a1.49,1.49,0,0,0,0-3Z"/><path class="cls-1" d="M65.45,27.51h-11a1.49,1.49,0,1,0,0,3h11a1.49,1.49,0,0,0,0-3Z"/><path class="cls-1" d="M65.45,46.51H29.85a1.49,1.49,0,0,0,0,3h35.6a1.49,1.49,0,0,0,0-3Z"/><path class="cls-1" d="M65.45,53H29.85a1.49,1.49,0,0,0,0,3h35.6a1.49,1.49,0,0,0,0-3Z"/><path class="cls-1" d="M65.45,59.51H29.85a1.49,1.49,0,0,0,0,3h35.6a1.49,1.49,0,0,0,0-3Z"/><path class="cls-1" d="M65.45,65.51H29.85a1.49,1.49,0,0,0,0,3h35.6a1.49,1.49,0,0,0,0-3Z"/></svg>