<svg xmlns="http://www.w3.org/2000/svg" viewBox="0 0 88 89"><defs><style>.cls-1{fill:#272626;}</style></defs><path class="cls-1" d="M60.5,45.26a13.37,13.37,0,0,0-3,.34l-3-6.25A13.74,13.74,0,1,0,34,38.84l-3.25,6.82a13.91,13.91,0,0,0-3.25-.4A13.74,13.74,0,1,0,40.85,62.18a1.34,1.34,0,0,0,.4.06h5.91a13.73,13.73,0,1,0,13.34-17Zm-16-26A10.76,10.76,0,1,1,33.74,30,10.78,10.78,0,0,1,44.5,19.24Zm-17,50.52A10.76,10.76,0,1,1,38.26,59,10.78,10.78,0,0,1,27.5,69.76Zm13.75-10.5h0c0-.09,0-.17,0-.26a13.73,13.73,0,0,0-7.67-12.31L36.28,41a13.7,13.7,0,0,0,15.92.39l2.47,5.19A13.75,13.75,0,0,0,46.76,59c0,.09,0,.17,0,.26ZM60.5,69.76A10.76,10.76,0,1,1,71.26,59,10.78,10.78,0,0,1,60.5,69.76Z"/><path class="cls-1" d="M58.18,54.35a.77.77,0,0,0-.72-.5h-.59a.77.77,0,0,0-.72.49L53.27,62a.41.41,0,0,0,0,.4.42.42,0,0,0,.35.19h.84a.43.43,0,0,0,.41-.29l.78-2.15h2.79l.73,2.14a.43.43,0,0,0,.41.3h.92a.45.45,0,0,0,.36-.19A.44.44,0,0,0,61,62Zm-.25,4.3h-1.7l.88-2.4Z"/><path class="cls-1" d="M67.25,61.3a.34.34,0,0,0-.14.05.2.2,0,0,1,0-.08V57.85a1.64,1.64,0,0,0-.79-1.5,3.54,3.54,0,0,0-1.85-.44,3.19,3.19,0,0,0-1.75.48,1.67,1.67,0,0,0-.77,1.11l-.09.38h.71c.29,0,.64,0,.76,0h.14l.08-.12a.34.34,0,0,0,.06-.12,1.07,1.07,0,0,1,.83-.27,1.6,1.6,0,0,1,.88.19.5.5,0,0,1,.22.48.75.75,0,0,1,0,.26s0,.1-.23.12l-1.59.2a2.74,2.74,0,0,0-1.51.63,1.89,1.89,0,0,0-.62,1.5,2,2,0,0,0,.61,1.47,2.18,2.18,0,0,0,1.56.59,3,3,0,0,0,1.4-.33,3.06,3.06,0,0,0,.58-.38c0,.05,0,.09.07.13a1.11,1.11,0,0,0,1,.5h.38l.39-.1.22-.06V61.22l-.35.06ZM65.5,60a1.28,1.28,0,0,1-.75,1.19,1.37,1.37,0,0,1-1.36,0,.52.52,0,0,1-.2-.45.6.6,0,0,1,.31-.57,2.42,2.42,0,0,1,.71-.19l.59-.08a3.29,3.29,0,0,0,.61-.12l.09,0Z"/><path class="cls-1" d="M32,53.14a1.48,1.48,0,0,0-1.29-.75H24.49a1.48,1.48,0,0,0-1.29.75l-3.1,5.37a1.47,1.47,0,0,0,0,1.49l3.1,5.37a1.5,1.5,0,0,0,1.29.75H30.7A1.5,1.5,0,0,0,32,65.37L35.09,60a1.52,1.52,0,0,0,0-1.49Zm-2.16,10H25.35l-2.24-3.88,2.24-3.87h4.48l2.24,3.87Z"/><path class="cls-1" d="M40.74,34.71a1.49,1.49,0,1,0,1.6-2.52L39,30.07v-.14l3.35-2.12a1.49,1.49,0,1,0-1.6-2.52l-3.35,2.12a3.07,3.07,0,0,0,0,5.18Z"/><path class="cls-1" d="M46.66,32.19a1.49,1.49,0,0,0-.46,2.06,1.5,1.5,0,0,0,2.06.46l3.35-2.12a3.07,3.07,0,0,0,0-5.18l-3.35-2.12a1.49,1.49,0,1,0-1.6,2.52L50,29.93l.8-1.26-.8,1.4Z"/></svg>