<svg xmlns="http://www.w3.org/2000/svg" viewBox="0 0 188.26 54"><path d="M23.35,27,0,13.5,23.35,0,46.88,13.5,23.35,27" style="fill:#e92300"/><path d="M0,13.5,23.35,27,0,40.68Z" style="fill:#d9d9d8"/><path d="M0,40.68,23.35,54V27Z" style="fill:#424243"/><path d="M23.35,27V54L46.7,40.5Z" style="fill:#959595"/><path d="M184.18,23.49h0a2,2,0,0,1,4.08-.1v.09h0a2,2,0,1,1-4.08.1Zm3.84,0h0a1.79,1.79,0,0,0-1.77-1.82h0a1.82,1.82,0,0,0-1.81,1.82h0a1.81,1.81,0,0,0,3.62,0Zm-2.6-1.08h.94c.46,0,.8.22.8.66a.62.62,0,0,1-.48.63l.55.79h-.48l-.49-.72h-.44v.72h-.4Zm.9,1c.27,0,.42-.14.42-.34s-.15-.34-.42-.34h-.5v.68Z" style="fill:#959595"/><path d="M68.31,21.28a4.82,4.82,0,0,0-2.18-1.65,7.32,7.32,0,0,0-5.61.07,7,7,0,0,0-2.31,1.64,7.33,7.33,0,0,0-1.49,2.45,8.72,8.72,0,0,0-.52,3A9.47,9.47,0,0,0,56.71,30a7.09,7.09,0,0,0,1.44,2.46,6.62,6.62,0,0,0,2.25,1.6,7.5,7.5,0,0,0,3,.57,6.56,6.56,0,0,0,3-.67,6,6,0,0,0,2.12-1.78l3,2.12A9.71,9.71,0,0,1,68.07,37a11.06,11.06,0,0,1-4.74,1,12.38,12.38,0,0,1-4.55-.82,10.29,10.29,0,0,1-5.89-5.82,12,12,0,0,1-.84-4.52,11.52,11.52,0,0,1,.88-4.57,10.29,10.29,0,0,1,2.42-3.48A10.8,10.8,0,0,1,59,16.57a13,13,0,0,1,4.54-.77,12.45,12.45,0,0,1,2.11.19,10.94,10.94,0,0,1,2.12.6,10.52,10.52,0,0,1,1.91,1A6.26,6.26,0,0,1,71.17,19Z" style="fill:#e92300"/><path d="M72.28,30.23a7.48,7.48,0,0,1,.61-3.09A7.15,7.15,0,0,1,77,23.25a8.83,8.83,0,0,1,6.08,0,7.38,7.38,0,0,1,2.48,1.52,7.23,7.23,0,0,1,1.65,2.37,8,8,0,0,1,0,6.19,7.35,7.35,0,0,1-1.65,2.4,7.49,7.49,0,0,1-2.48,1.56,8.39,8.39,0,0,1-6.08,0,7.31,7.31,0,0,1-4.13-4A7.52,7.52,0,0,1,72.28,30.23Zm3.64,0a5.59,5.59,0,0,0,.25,1.67,4.67,4.67,0,0,0,.76,1.49,4,4,0,0,0,1.28,1.07,4.28,4.28,0,0,0,3.7,0,4,4,0,0,0,1.29-1.07A4.67,4.67,0,0,0,84,31.9a5.93,5.93,0,0,0,.25-1.67A5.86,5.86,0,0,0,84,28.57a4.78,4.78,0,0,0-.76-1.47A3.77,3.77,0,0,0,81.91,26a4.43,4.43,0,0,0-3.7,0,3.64,3.64,0,0,0-1.28,1.06,4.57,4.57,0,0,0-.76,1.47,5.52,5.52,0,0,0-.25,1.66Z" style="fill:#e92300"/><path d="M89.81,23.13h3.43v2.39h.06a5.24,5.24,0,0,1,1.67-2,4.24,4.24,0,0,1,2.51-.78l.44,0a1.42,1.42,0,0,1,.42.07v3.28a6,6,0,0,0-.61-.12,4,4,0,0,0-.49,0,3.84,3.84,0,0,0-2,.45,3.52,3.52,0,0,0-1.16,1.08,3.7,3.7,0,0,0-.57,1.28,4.58,4.58,0,0,0-.15,1v7.67H89.81Z" style="fill:#e92300"/><path d="M113.29,30.47v.47a3.87,3.87,0,0,1,0,.48H102.37a3.51,3.51,0,0,0,.4,1.42,3.72,3.72,0,0,0,.91,1.1,4.66,4.66,0,0,0,1.28.73,4.26,4.26,0,0,0,1.49.27,4.92,4.92,0,0,0,2.27-.49,4.32,4.32,0,0,0,1.52-1.36L112.63,35a7.2,7.2,0,0,1-6.15,2.86,9,9,0,0,1-3.07-.52A7.32,7.32,0,0,1,101,35.86a6.54,6.54,0,0,1-1.61-2.34,8.08,8.08,0,0,1-.58-3.15,8.25,8.25,0,0,1,.58-3.14,7,7,0,0,1,4-4,8.13,8.13,0,0,1,3-.55,7.65,7.65,0,0,1,2.76.49,6,6,0,0,1,2.19,1.46,6.8,6.8,0,0,1,1.45,2.42A10,10,0,0,1,113.29,30.47Zm-3.58-1.61a4.23,4.23,0,0,0-.2-1.32,2.89,2.89,0,0,0-1.67-1.86,3.64,3.64,0,0,0-1.5-.28,4,4,0,0,0-2.73,1,3.52,3.52,0,0,0-1.24,2.49Z" style="fill:#e92300"/><path d="M115.86,16.33h3.76V34.11h9v3.34H115.86Z" style="fill:#959595"/><path d="M129.19,30.23a7.81,7.81,0,0,1,.61-3.09,7.26,7.26,0,0,1,1.66-2.37,7.34,7.34,0,0,1,2.47-1.52,8.86,8.86,0,0,1,6.09,0,7.15,7.15,0,0,1,4.13,3.89,8.16,8.16,0,0,1,0,6.19,7.31,7.31,0,0,1-4.13,4,8.42,8.42,0,0,1-6.09,0,7.55,7.55,0,0,1-2.47-1.56,7.38,7.38,0,0,1-1.66-2.4A7.86,7.86,0,0,1,129.19,30.23Zm3.64,0a5.93,5.93,0,0,0,.25,1.67,4.5,4.5,0,0,0,.77,1.49,3.9,3.9,0,0,0,1.28,1.07,4.28,4.28,0,0,0,3.7,0,4,4,0,0,0,1.28-1.07,4.67,4.67,0,0,0,.76-1.49,5.59,5.59,0,0,0,.25-1.67,5.52,5.52,0,0,0-.25-1.66,4.57,4.57,0,0,0-.76-1.47A3.64,3.64,0,0,0,138.83,26a4.43,4.43,0,0,0-3.7,0,3.64,3.64,0,0,0-1.28,1.06,4.81,4.81,0,0,0-.77,1.47A5.86,5.86,0,0,0,132.83,30.23Z" style="fill:#959595"/><path d="M161.91,23.13v13a11.47,11.47,0,0,1-.48,3.5A6.83,6.83,0,0,1,160,42.32,6.61,6.61,0,0,1,157.44,44a9.68,9.68,0,0,1-3.61.6,11.29,11.29,0,0,1-1.83-.15,13.91,13.91,0,0,1-1.91-.44,11.79,11.79,0,0,1-1.8-.75,8.77,8.77,0,0,1-1.55-1l2.06-2.78A7.39,7.39,0,0,0,151.15,41a7.16,7.16,0,0,0,2.66.52,5.68,5.68,0,0,0,2.16-.37,3.44,3.44,0,0,0,1.4-1,4.14,4.14,0,0,0,.75-1.55,8.24,8.24,0,0,0,.22-2V35.51h-.06a5,5,0,0,1-2,1.62,6.28,6.28,0,0,1-2.7.55,6.79,6.79,0,0,1-2.92-.6,6.47,6.47,0,0,1-2.23-1.61A7.31,7.31,0,0,1,147,33.1a8.06,8.06,0,0,1-.51-2.88A8.57,8.57,0,0,1,147,27.3a7.06,7.06,0,0,1,1.4-2.38,6.49,6.49,0,0,1,2.21-1.61,6.78,6.78,0,0,1,2.91-.6,6.45,6.45,0,0,1,2.83.62,4.84,4.84,0,0,1,2.09,1.94h.06V23.12Zm-7.63,2.51a4.06,4.06,0,0,0-1.75.35,3.81,3.81,0,0,0-1.28,1,4.16,4.16,0,0,0-.8,1.44,5.4,5.4,0,0,0-.29,1.78,5,5,0,0,0,.29,1.67,4.74,4.74,0,0,0,.8,1.44,3.83,3.83,0,0,0,1.28,1,3.67,3.67,0,0,0,1.72.39,4.06,4.06,0,0,0,3.11-1.37,4.29,4.29,0,0,0,.85-1.44,4.7,4.7,0,0,0,.3-1.71,5,5,0,0,0-.3-1.75,4.21,4.21,0,0,0-.85-1.46A4,4,0,0,0,156,26,4.29,4.29,0,0,0,154.28,25.64Z" style="fill:#959595"/><path d="M163.5,18.27a2.1,2.1,0,0,1,.64-1.51,2.24,2.24,0,0,1,1.63-.64,2.38,2.38,0,0,1,1.65.61,2.1,2.1,0,0,1,.12,3l-.12.11a2.39,2.39,0,0,1-1.65.62,2.24,2.24,0,0,1-1.63-.64A2.1,2.1,0,0,1,163.5,18.27Zm.51,4.86h3.58V37.45H164Z" style="fill:#959595"/><path d="M180.23,27.22a3.06,3.06,0,0,0-1.25-1,3.73,3.73,0,0,0-1.7-.4,3.47,3.47,0,0,0-1.73.4,3.62,3.62,0,0,0-1.24,1.06,4.5,4.5,0,0,0-.73,1.47,5.85,5.85,0,0,0-.24,1.66,5.42,5.42,0,0,0,.26,1.65,4.52,4.52,0,0,0,.76,1.48,3.66,3.66,0,0,0,3,1.46,4.77,4.77,0,0,0,1.67-.33,3.29,3.29,0,0,0,1.34-1L182.65,36a6,6,0,0,1-2.28,1.48,8.54,8.54,0,0,1-3,.52,9,9,0,0,1-3-.51,7,7,0,0,1-4.15-3.87,8,8,0,0,1-.61-3.2,7.66,7.66,0,0,1,.61-3.13,7.05,7.05,0,0,1,1.66-2.38,7.23,7.23,0,0,1,2.43-1.52,8.23,8.23,0,0,1,6,.06,5.67,5.67,0,0,1,2.34,1.64Z" style="fill:#959595"/></svg>