<?xml version="1.0" encoding="UTF-8"?>
<svg width="270px" height="46px" viewBox="0 0 270 46" version="1.1" xmlns="http://www.w3.org/2000/svg" xmlns:xlink="http://www.w3.org/1999/xlink">
    <!-- Generator: Sketch 52.6 (67491) - http://www.bohemiancoding.com/sketch -->
    <title>EAGLEVIEW LOGO COLOR</title>
    <desc>Created with Sketch.</desc>
    <defs>
        <linearGradient x1="50.0309809%" y1="-0.0266666502%" x2="50.0309809%" y2="99.9732715%" id="linearGradient-1">
            <stop stop-color="#0098C5" offset="0%"></stop>
            <stop stop-color="#0098C5" offset="17%"></stop>
            <stop stop-color="#0098C5" stop-opacity="0.43" offset="54%"></stop>
            <stop stop-color="#0098C5" stop-opacity="0" offset="84%"></stop>
            <stop stop-color="#0098C5" stop-opacity="0" offset="100%"></stop>
        </linearGradient>
    </defs>
    <g id="DESKTOP-DESIGN" stroke="none" stroke-width="1" fill="none" fill-rule="evenodd">
        <g id="HomePage" transform="translate(-60.000000, -15.000000)">
            <g id="Navigation">
                <g id="EAGLEVIEW-LOGO-COLOR" transform="translate(60.000000, 15.000000)">
                    <path d="M84.9165355,23.4854962 C85.0720848,23.4839958 85.2196118,23.418177 85.3221741,23.3045215 C85.4247365,23.190866 85.4726223,23.0401362 85.4538405,22.8900763 C85.3178257,21.39606 84.6872222,19.9851151 83.6565395,18.8687023 C82.516992,17.6473282 80.8904136,17.0366412 78.7768044,17.0366412 C77.8381472,17.0274914 76.9076055,17.2062673 76.0431473,17.5618321 C75.2260027,17.9057579 74.480551,18.3921463 73.8436531,18.9969466 C73.2156325,19.591936 72.701719,20.2908979 72.3260021,21.0610687 C72.0472408,21.6333048 71.8526199,22.2407722 71.7478493,22.8656489 C71.7242068,23.0176074 71.7694351,23.1720699 71.8718607,23.289169 C71.9742863,23.4062681 72.1238731,23.4745299 72.2820122,23.4763359 L84.9165355,23.4854962 Z M88.4922847,24.4015267 L88.4922847,25.0335878 C88.4920904,25.2723015 88.4784541,25.510826 88.4514369,25.7480916 L72.1971745,25.7480916 C72.0428024,25.7479462 71.8957345,25.8119586 71.7930634,25.9239842 C71.6903923,26.0360098 71.6419192,26.1853543 71.6598695,26.3343511 C71.7349324,27.0897569 71.9266586,27.829866 72.2285959,28.529771 C72.5928044,29.3812936 73.1267401,30.1543997 73.7996632,30.8045802 C74.473298,31.4531055 75.2677086,31.9712163 76.1405535,32.3312977 C78.3759421,33.2348653 80.917123,33.0733972 83.0124019,31.8946565 C83.872084,31.3817848 84.6290011,30.7217554 85.2464596,29.9465649 C85.3334401,29.8365212 85.4621383,29.7649 85.6038256,29.7476891 C85.745513,29.7304781 85.8883932,29.7691102 86.0005719,29.8549618 L87.3265527,30.8656489 C87.4420505,30.953296 87.5159713,31.0827636 87.5313737,31.2243801 C87.546776,31.3659966 87.5023396,31.5076204 87.4082482,31.6167939 C86.4150429,32.795486 85.1661334,33.7463901 83.7508035,34.4015267 C82.2706516,35.0531079 80.6624961,35.3844127 79.0376016,35.3725191 C77.5999495,35.3869844 76.173804,35.1222644 74.8428519,34.5938931 C73.5955429,34.0985998 72.4661857,33.3596738 71.5247577,32.4229008 C70.5808537,31.4743216 69.8340532,30.357751 69.3252635,29.1343511 C68.7846177,27.8192177 68.5176268,26.4129772 68.5397298,24.9969466 C68.5248154,23.5837765 68.7904622,22.1810696 69.3221214,20.8656489 C69.8144067,19.6411691 70.5512607,18.5235034 71.4901942,17.5770992 C73.3997614,15.664051 76.0343665,14.5975634 78.7768044,14.6274809 C80.2197218,14.5996651 81.6527254,14.8648635 82.9841227,15.4061069 C84.1412214,15.8876195 85.1776618,16.6062917 86.0225669,17.5129771 C86.8417347,18.4171888 87.4676422,19.470708 87.8638577,20.6122137 C88.2907137,21.8341944 88.5031493,23.1172113 88.4922847,24.4076336 L88.4922847,24.4015267 Z M108.363144,24.9969466 C107.15028,24.9969466 105.929037,25.0458015 104.699415,25.1435115 C103.567673,25.2259708 102.448082,25.4245309 101.359326,25.7358779 C100.454114,25.981813 99.616803,26.4209887 98.9084609,27.021374 C98.2724424,27.5949423 97.9277865,28.4110469 97.9658205,29.2534351 C97.9440477,29.8686972 98.08696,30.4789187 98.3805823,31.0244275 C98.6448114,31.4931794 99.0235506,31.8916357 99.4834716,32.1847328 C99.9558227,32.4813229 100.477971,32.6952407 101.02626,32.8167939 C101.587926,32.942348 102.162388,33.0058548 102.738723,33.0061069 C103.692585,33.02241 104.639201,32.8423855 105.51637,32.4778626 C106.29337,32.1487273 106.987943,31.6602104 107.552473,31.0458015 C108.104927,30.4352206 108.531602,29.7272391 108.809327,28.9603053 C109.100575,28.1613241 109.24728,27.3193744 109.242942,26.4717557 L109.242942,25.5221374 C109.242942,25.2320825 109.000975,24.9969466 108.702495,24.9969466 L108.363144,24.9969466 Z M109.233515,22.0931298 C109.233515,20.3933842 108.770574,19.124173 107.844692,18.2854962 C106.918809,17.4468193 105.573976,17.0284987 103.810191,17.0305344 C102.649694,17.022209 101.499171,17.2391741 100.426112,17.6687023 C99.6052461,17.9928866 98.8434726,18.4434406 98.1700593,19.0030534 C97.942406,19.1858573 97.6056061,19.1558555 97.415947,18.9358779 L96.4733066,17.8396947 C96.2835033,17.6268256 96.3030235,17.3057039 96.5172965,17.1160305 C97.3950885,16.3993344 98.3902621,15.8306455 99.4614766,15.4335878 C100.948868,14.879704 102.53176,14.6081334 104.124404,14.6335878 C105.168234,14.625338 106.207049,14.7747013 107.203696,15.0763359 C108.123406,15.3539639 108.977648,15.8053458 109.717404,16.4045802 C110.451789,17.0120037 111.030557,17.7772426 111.407872,18.6396947 C111.833243,19.6408961 112.039757,20.7171053 112.014304,21.8 L112.014304,30.4412214 C112.014304,31.1984733 112.043631,31.9852417 112.102284,32.8015267 C112.13999,33.3450382 112.193406,33.8335878 112.256249,34.2671756 C112.283262,34.4196896 112.239264,34.5759909 112.136124,34.6939062 C112.032985,34.8118214 111.881332,34.8792003 111.722086,34.8778626 L110.176156,34.8778626 C109.910312,34.8808993 109.682636,34.6934885 109.641993,34.4381679 C109.588576,34.0870229 109.538302,33.7145038 109.497455,33.3206107 C109.440896,32.7587786 109.412617,32.2091603 109.412617,31.6748092 L109.324637,31.6748092 C108.54395,32.8681325 107.462339,33.8477369 106.182503,34.5206107 C104.86036,35.1281881 103.408737,35.4222469 101.946905,35.378626 C101.133405,35.3778547 100.323397,35.2752286 99.5368878,35.0732824 C98.7251601,34.8676184 97.960049,34.5165728 97.2808352,34.0381679 C96.5868005,33.5418823 96.0103515,32.9067381 95.5903668,32.1755725 C95.1175657,31.3189451 94.8856262,30.3562894 94.91795,29.3847328 C94.91795,27.8620865 95.3159537,26.6569975 96.1119611,25.7694656 C96.9699665,24.8382715 98.0707254,24.149411 99.2980856,23.7755725 C100.781844,23.3091984 102.319818,23.0250578 103.876176,22.929771 C105.595971,22.8015267 107.381751,22.7374046 109.233515,22.7374046 L109.233515,22.0931298 Z M121.940308,24.7435115 C121.933936,25.7486434 122.109424,26.7470402 122.45876,27.6931298 C122.7916,28.593677 123.300547,29.4231608 123.957558,30.1358779 C124.627959,30.8524401 125.448707,31.4209492 126.364433,31.8030534 C127.393082,32.2238214 128.500633,32.4317992 129.616543,32.4137405 C130.684063,32.4244357 131.743953,32.237922 132.739824,31.8641221 C133.666395,31.5160212 134.508465,30.9846985 135.212684,30.3038168 C135.918998,29.6126276 136.472826,28.7887126 136.84031,27.8824427 C137.24118,26.881368 137.439616,25.8145595 137.424747,24.740458 C137.44832,21.6878499 135.609062,18.9115423 132.739824,17.6687023 C131.757787,17.2416956 130.69235,17.0260822 129.616543,17.0366412 C128.501543,17.0192433 127.395706,17.2347922 126.37386,17.6687023 C125.459613,18.0616532 124.639839,18.635728 123.966984,19.3541985 C123.309974,20.0669155 122.801027,20.8963993 122.468186,21.7969466 C122.119103,22.7431007 121.943623,23.7414537 121.949734,24.7465649 L121.940308,24.7435115 Z M120.969388,39.2534351 C121.070922,39.1486406 121.212468,39.0892243 121.360584,39.0892243 C121.5087,39.0892243 121.650246,39.1486406 121.75178,39.2534351 C122.59376,40.1351773 123.594812,40.8595981 124.705386,41.3908397 C127.237113,42.6221274 130.179812,42.7823462 132.837231,41.8335878 C133.777696,41.4742737 134.617471,40.9040715 135.288096,40.1694656 C135.918839,39.4507361 136.384789,38.609679 136.654924,37.7022901 C136.949586,36.7235629 137.095664,35.7082809 137.088539,34.6885496 L137.088539,30.9877863 L137.000559,30.9877863 C136.20318,32.2379273 135.046358,33.2336478 133.673038,33.8519084 C132.318961,34.5082052 130.828027,34.8539647 129.314898,34.8625954 C127.839045,34.8827246 126.373088,34.6255962 124.997605,34.1053435 C123.76505,33.6339968 122.643728,32.9245182 121.701505,32.0198473 C120.77421,31.1132079 120.049957,30.0299469 119.57428,28.8381679 C118.564596,26.2733325 118.564596,23.4365911 119.57428,20.8717557 C120.06057,19.6662646 120.783003,18.5639494 121.701505,17.6259542 C122.633916,16.6832999 123.755854,15.9370544 124.997605,15.4335878 C126.365724,14.884325 127.834784,14.6121063 129.314898,14.6335878 C130.821009,14.642112 132.30482,14.9879649 133.651043,15.6442748 C135.028088,16.2835577 136.187358,17.2935264 136.991132,18.5541985 L137.079112,18.5541985 L137.079112,15.6625954 C137.079112,15.3725405 137.321079,15.1374046 137.619559,15.1374046 L139.50484,15.1374046 C139.803321,15.1374046 140.045287,15.3725405 140.045287,15.6625954 L140.045287,34.6977099 C140.028343,35.8550042 139.869058,37.0061781 139.570825,38.1267176 C139.261264,39.3432545 138.683398,40.4799051 137.877214,41.4580153 C136.965952,42.5352573 135.816859,43.3993607 134.51513,43.9862595 C133.099075,44.6620865 131.263021,45 129.006968,45 C127.158743,44.9998947 125.329766,44.635284 123.630776,43.9282443 C122.144665,43.3273474 120.785444,42.4650675 119.621412,41.3847328 C119.415014,41.1804414 119.415014,40.8531464 119.621412,40.648855 L120.969388,39.2534351 Z M150.115829,34.8625954 L148.249401,34.8625954 C147.95092,34.8625954 147.708954,34.6274595 147.708954,34.3374046 L147.708954,3.52519084 C147.708954,3.23513595 147.95092,3 148.249401,3 L150.115829,3 C150.41431,3 150.656276,3.23513595 150.656276,3.52519084 L150.656276,34.340458 C150.656298,34.481349 150.598066,34.6163406 150.494665,34.7151006 C150.391263,34.8138606 150.251364,34.8681063 150.106402,34.8656489 L150.115829,34.8625954 Z M174.134306,23.4854962 C174.289647,23.4841048 174.436954,23.4181938 174.539038,23.3044023 C174.641123,23.1906107 174.688231,23.0398126 174.668469,22.8900763 C174.532006,21.3967523 173.902697,19.986239 172.87431,18.8687023 C171.730573,17.6473282 170.103994,17.0366412 167.994575,17.0366412 C167.055917,17.0274914 166.125376,17.2062673 165.260918,17.5618321 C163.620252,18.2473616 162.29386,19.4917898 161.531204,21.0610687 C161.251062,21.6327803 161.056378,22.2404422 160.953051,22.8656489 C160.929409,23.0176074 160.974637,23.1720699 161.077062,23.289169 C161.179488,23.4062681 161.329075,23.4745299 161.487214,23.4763359 L174.134306,23.4854962 Z M177.710055,24.4015267 L177.710055,25.0335878 C177.708755,25.2723553 177.69407,25.5108767 177.666065,25.7480916 L161.411803,25.7480916 C161.257483,25.7497795 161.111085,25.8147689 161.00874,25.9270206 C160.906394,26.0392722 160.857636,26.1883292 160.874498,26.3374046 C160.949561,27.0928103 161.141287,27.8329195 161.443224,28.5328244 C161.808597,29.3837395 162.342388,30.1566364 163.014291,30.8076336 C163.688459,31.4555264 164.482737,31.9735512 165.355182,32.3343511 C167.596885,33.2306571 170.140601,33.0590124 172.233314,31.870229 C173.09208,31.3573319 173.84796,30.6972786 174.46423,29.9221374 C174.55178,29.8118986 174.681017,29.7402117 174.823217,29.7230102 C174.965416,29.7058088 175.108794,29.7445181 175.221484,29.8305344 L176.544323,30.8412214 C176.659536,30.9289235 176.733491,31.0580667 176.749458,31.199439 C176.765425,31.3408113 176.722056,31.4824679 176.629161,31.5923664 C175.634108,32.7704757 174.384327,33.7212271 172.968574,34.3770992 C171.488516,35.0289595 169.880297,35.3602775 168.255372,35.3480916 C166.820917,35.36101 165.398165,35.0963252 164.070049,34.5694656 C162.82358,34.0726435 161.694524,33.3339147 160.751954,32.3984733 C159.80805,31.4498941 159.06125,30.3333236 158.55246,29.1099237 C158.007697,27.7975348 157.734362,26.3937005 157.748074,24.978626 C157.733159,23.5654558 157.998806,22.1627489 158.530465,20.8473282 C159.025102,19.6240138 159.761677,18.5067715 160.698538,17.5587786 C162.609922,15.6464744 165.245125,14.5802046 167.98829,14.6091603 C169.431208,14.5813445 170.864211,14.8465429 172.195609,15.3877863 C173.351336,15.8700989 174.386585,16.588688 175.230911,17.4946565 C176.050998,18.3987483 176.677959,19.4522432 177.075344,20.5938931 C177.500529,21.8162765 177.712919,23.0990177 177.703771,24.389313 L177.710055,24.4015267 Z M192.691753,34.8412214 L190.178045,34.8412214 C189.958456,34.8417555 189.760631,34.7123859 189.678446,34.5145038 L181.823109,15.8366412 C181.755135,15.6748113 181.774466,15.4907235 181.874675,15.3455712 C181.974885,15.2004188 182.142839,15.1132261 182.322709,15.1129771 L184.443649,15.1129771 C184.667527,15.1131401 184.867838,15.248183 184.946391,15.4519084 L191.416046,31.8305344 L191.504026,31.8305344 L198.008245,15.4732824 C198.087824,15.270759 198.287903,15.1370875 198.510986,15.1374046 L200.506242,15.1374046 C200.686111,15.1376536 200.854066,15.2248463 200.954275,15.3699987 C201.054485,15.515151 201.073815,15.6992388 201.005841,15.8610687 L193.200779,34.5389313 C193.118594,34.7368133 192.920768,34.866183 192.701179,34.8656489 L192.691753,34.8412214 Z M208.647512,34.8412214 L206.777942,34.8412214 C206.479462,34.8412214 206.237495,34.6060854 206.237495,34.3160305 L206.237495,15.6625954 C206.237495,15.3725405 206.479462,15.1374046 206.777942,15.1374046 L208.647512,15.1374046 C208.945993,15.1374046 209.18796,15.3725405 209.18796,15.6625954 L209.18796,34.340458 C209.188004,34.6269729 208.951732,34.8606515 208.656939,34.8656489 L208.647512,34.8412214 Z M231.845892,23.4610687 C232.001783,23.4605474 232.149941,23.3950114 232.252725,23.2811112 C232.355508,23.1672111 232.403023,23.0159101 232.383197,22.8656489 C232.247183,21.3716325 231.616579,19.9606876 230.585896,18.8442748 C229.444254,17.6229008 227.817676,17.0122137 225.706161,17.0122137 C224.768485,17.0026959 223.838893,17.1814948 222.975646,17.5374046 C222.158091,17.8805988 221.412509,18.3670722 220.776152,18.9725191 C220.146185,19.5665686 219.631084,20.265699 219.255359,21.0366412 C218.976598,21.6088773 218.781977,22.2163447 218.677206,22.8412214 C218.653564,22.9931799 218.698792,23.1476424 218.801218,23.2647415 C218.903643,23.3818406 219.05323,23.4501024 219.211369,23.4519084 L231.845892,23.4610687 Z M235.424784,24.3770992 L235.424784,25.0091603 C235.423484,25.2479278 235.408799,25.4864492 235.380794,25.7236641 L219.126531,25.7236641 C218.972211,25.725352 218.825813,25.7903414 218.723468,25.9025931 C218.621123,26.0148448 218.572364,26.1639018 218.589226,26.3129771 C218.664289,27.0683828 218.856015,27.808492 219.157953,28.5083969 C219.522161,29.3599196 220.056097,30.1330257 220.72902,30.7832061 C221.402655,31.4317315 222.197065,31.9498423 223.06991,32.3099237 C225.310554,33.2061721 227.853306,33.034514 229.944901,31.8458015 C230.805211,31.3337487 231.56227,30.6735958 232.178959,29.8977099 C232.265939,29.7876662 232.394637,29.7160451 232.536325,29.6988341 C232.678012,29.6816231 232.820892,29.7202553 232.933071,29.8061069 L234.259052,30.8167939 C234.37455,30.904441 234.44847,31.0339086 234.463873,31.1755251 C234.479275,31.3171416 234.434839,31.4587654 234.340747,31.5679389 C233.355633,32.7632923 232.109629,33.7311217 230.692729,34.4015267 C229.212671,35.053387 227.604452,35.384705 225.979527,35.3725191 C224.545072,35.3854375 223.12232,35.1207526 221.794204,34.5938931 C220.546895,34.0985998 219.417538,33.3596738 218.47611,32.4229008 C217.532206,31.4743216 216.785405,30.357751 216.276615,29.1343511 C215.730339,27.8223938 215.456947,26.4182635 215.472229,25.0030534 C215.457314,23.5898833 215.722961,22.1871764 216.25462,20.8717557 C216.746906,19.647276 217.48376,18.5296102 218.422693,17.5832061 C220.33226,15.6701578 222.966865,14.6036702 225.709303,14.6335878 C227.152221,14.605772 228.585224,14.8709703 229.916622,15.4122137 C231.07372,15.8937264 232.110161,16.6123986 232.955066,17.519084 C233.774234,18.4232957 234.400141,19.4768148 234.796357,20.6183206 C235.223155,21.8403153 235.435589,23.1233226 235.424784,24.4137405 L235.424784,24.3770992 Z M269.969412,15.8366412 L263.892523,34.5145038 C263.822162,34.7333353 263.613135,34.8819642 263.377213,34.880916 L260.954627,34.880916 C260.721558,34.8814731 260.514697,34.735948 260.442459,34.5206107 L255.125968,18.8900763 L255.037988,18.8900763 L249.825187,34.5022901 C249.752852,34.7193112 249.544624,34.8661385 249.309877,34.8656489 L246.890433,34.8656489 C246.654511,34.866697 246.445484,34.7180681 246.375123,34.4992366 L240.295092,15.8366412 C240.242984,15.6769871 240.272364,15.502755 240.374182,15.3676119 C240.476001,15.2324689 240.638045,15.1526242 240.810402,15.1526718 L242.837079,15.1526718 C243.076065,15.1535005 243.286461,15.3059141 243.355531,15.5282443 L248.141002,31.1709924 L248.228982,31.1709924 L253.570611,15.5129771 C253.643684,15.2982325 253.850028,15.1530708 254.082779,15.1526718 L256.166014,15.1526718 C256.398449,15.1540106 256.604289,15.298817 256.678182,15.5129771 L262.114075,31.1557252 L262.202055,31.1557252 L266.946678,15.5160305 C267.01461,15.2924913 267.22528,15.1386392 267.46513,15.1374046 L269.447817,15.1374046 C269.625124,15.1336635 269.793036,15.2146951 269.897123,15.3542321 C270.001211,15.4937691 270.028226,15.6740524 269.969412,15.8366412 Z" id="Shape" fill="#00729E" fill-rule="nonzero"></path>
                    <path d="M129.103987,44.9999649 C127.229944,45.0040989 125.374345,44.6431779 123.64852,43.9388559 C122.137654,43.3337938 120.755798,42.4646625 119.572596,41.3752648 C119.280567,41.0893219 119.280567,40.6303298 119.572596,40.3443868 L120.917651,38.965852 C121.065073,38.8138202 121.272459,38.7292202 121.48828,38.7330731 C121.694099,38.7336074 121.890049,38.8181892 122.027556,38.965852 C122.849228,39.821122 123.825624,40.5249025 124.908921,41.0427235 C126.24678,41.7149721 127.733313,42.0655249 129.241941,42.0645322 C130.469976,42.089429 131.691335,41.884086 132.83816,41.4599117 C133.743185,41.1150261 134.551776,40.5704107 135.19906,39.8697597 C135.805012,39.1805889 136.253689,38.3761268 136.515897,37.5087166 C136.803285,36.559221 136.945868,35.5744595 136.939166,34.5853763 L136.939166,31.5018116 C136.14237,32.5516568 135.084729,33.3916014 133.863411,33.9444786 C132.479308,34.6109277 130.955169,34.9625526 129.408113,34.9723335 C127.907422,34.9902459 126.417176,34.7295502 125.018657,34.2044654 C123.761016,33.7245001 122.616772,33.004741 121.654453,32.0882935 C120.711186,31.1677504 119.972879,30.0711253 119.484807,28.8656661 C118.962358,27.5770829 118.699523,26.2042649 118.710382,24.8207548 C118.701807,23.4511806 118.96466,22.0926354 119.484807,20.8181669 C119.980935,19.5994748 120.716585,18.4846832 121.651317,17.5350775 C122.603114,16.5837833 123.747001,15.8306535 125.012387,15.3221663 C126.40378,14.7690561 127.89696,14.4934499 129.401843,14.5119748 C130.939487,14.5219642 132.454176,14.8726019 133.828923,15.5368066 C135.058164,16.1063278 136.121502,16.9612452 136.923489,18.0248201 L136.923489,15.7484238 C136.923487,15.5530672 137.004187,15.3657556 137.147747,15.2279015 C137.291307,15.0900475 137.485902,15.0130059 137.688508,15.0138099 L139.569704,15.0138099 C139.990481,15.0138099 140.331588,15.3427077 140.331588,15.7484238 L140.331588,34.5944456 C140.320428,35.7518161 140.165697,36.9037426 139.870695,38.0256671 C139.554772,39.2599445 138.964225,40.4132059 138.139995,41.4054959 C137.211118,42.4978451 136.038677,43.3741184 134.709949,43.9690869 C133.258293,44.6462619 131.377098,44.9999649 129.103987,44.9999649 Z M121.456927,39.1653768 C121.368374,39.1664327 121.283846,39.2012072 121.221778,39.2621161 L119.889264,40.6406509 C119.769764,40.7582023 119.769764,40.9463339 119.889264,41.0638853 C121.031455,42.1152296 122.364107,42.9554696 123.820963,43.5428294 C125.491525,44.2233691 127.287315,44.5719337 129.100851,44.5676612 C131.295579,44.5676612 133.120339,44.238143 134.499882,43.588176 C135.766986,43.0179076 136.886279,42.1824078 137.776298,41.1424859 C138.560607,40.1993329 139.122322,39.1027025 139.422344,37.9289278 C139.708282,36.8415682 139.858794,35.7252242 139.870695,34.6035149 L139.870695,15.75447 C139.870695,15.5875087 139.730322,15.4521597 139.557163,15.4521597 L137.675967,15.4521597 C137.502808,15.4521597 137.362435,15.5875087 137.362435,15.75447 L137.362435,18.6173482 C137.362435,18.7358908 137.26277,18.8319885 137.139826,18.8319885 L137.052037,18.8319885 C136.974632,18.8330612 136.902207,18.7952828 136.860782,18.7322261 C136.084369,17.5210489 134.966438,16.5479876 133.637668,15.9267869 C132.3243,15.2920633 130.877186,14.9569388 129.408113,14.9473016 C127.961427,14.9289466 126.525865,15.1932362 125.187965,15.724239 C123.977447,16.2094748 122.883503,16.9298186 121.974256,17.8404108 C121.077585,18.7487969 120.372643,19.8166186 119.89867,20.9844376 C119.399791,22.2080017 119.147592,23.5121023 119.155598,24.826801 C119.141112,26.1578965 119.390119,27.4794367 119.889264,28.7205572 C120.354462,29.8715772 121.058631,30.9188284 121.958579,31.7980757 C122.879436,32.671813 123.973507,33.3576076 125.175423,33.8144851 C126.520591,34.320963 127.954758,34.5714541 129.398707,34.5521222 C130.874623,34.5411146 132.328555,34.2061494 133.650209,33.5726369 C134.976812,32.9734348 136.094361,32.0156142 136.867053,30.8155673 C136.906938,30.7501929 136.979646,30.7099687 137.058308,30.7097587 L137.146097,30.7097587 C137.269546,30.7114121 137.368717,30.8083807 137.368705,30.9274221 L137.368705,34.6004918 C137.375821,35.6305859 137.22689,36.6561611 136.926624,37.6447562 C136.648765,38.5721839 136.168821,39.431752 135.518863,40.1660238 C134.82737,40.920242 133.960246,41.5056065 132.988655,41.8740768 C130.276598,42.8396505 127.270862,42.6787637 124.686313,41.4296807 C123.55447,40.887344 122.534525,40.1507901 121.6764,39.2560699 C121.622202,39.1976353 121.544497,39.1645808 121.463198,39.1653768 L121.456927,39.1653768 Z M102.086885,35.4862609 C101.255423,35.4814563 100.428117,35.372726 99.6256541,35.1627889 C98.7887673,34.9524493 97.9998401,34.5936336 97.2992424,34.104703 C96.5825485,33.5942494 95.9862629,32.9430599 95.5497306,32.1941021 C95.0605139,31.3121015 94.8194538,30.3219209 94.850553,29.3221546 C94.850553,27.7682799 95.2675513,26.5136923 96.1046833,25.6007153 C96.9899011,24.6530805 98.1223834,23.9515618 99.384234,23.5691903 C100.881355,23.1030904 102.43263,22.8177503 104.002569,22.7196985 C105.654885,22.6017975 107.38245,22.5383123 109.141368,22.5322661 L109.141368,22.1271704 C109.141368,20.5128336 108.699287,19.2975463 107.827666,18.4994472 C106.956046,17.7013481 105.648615,17.314391 103.955539,17.314391 C102.828466,17.3034385 101.710411,17.5089745 100.666582,17.9190115 C99.8692103,18.2328103 99.1284481,18.6664609 98.4718542,19.2038301 C98.3230757,19.3279832 98.1286467,19.3890199 97.9325782,19.3731239 C97.7273049,19.3572371 97.5368558,19.2637911 97.4027081,19.113137 L96.4621104,18.0278432 C96.1949318,17.7263499 96.2255244,17.2744995 96.5310876,17.0090576 C97.4256628,16.2841393 98.4398677,15.7088419 99.5315943,15.3070508 C101.042753,14.7482763 102.650788,14.4732743 104.269071,14.4968593 C105.332008,14.4903484 106.389601,14.6422895 107.404397,14.9473016 C108.350446,15.23068 109.229375,15.6908815 109.991041,16.3016516 C110.750728,16.9242408 111.349701,17.7087754 111.740553,18.5931634 C112.176223,19.6125235 112.389672,20.7074256 112.367618,21.8097446 L112.367618,30.365125 C112.367618,31.1148545 112.395836,31.8978381 112.452272,32.6868679 C112.489896,33.2159108 112.543196,33.6996072 112.605903,34.1228416 C112.638815,34.3341727 112.57343,34.5487463 112.427189,34.7093235 C112.282045,34.8704553 112.071634,34.963074 111.850289,34.9632641 L110.307709,34.9632641 C109.937227,34.9647276 109.618901,34.7100121 109.552095,34.3586436 C109.498795,34.0049406 109.44863,33.6300759 109.40787,33.2400956 C109.367111,32.8501154 109.345164,32.4994355 109.332623,32.1366632 C108.572287,33.162854 107.57659,34.0060088 106.42304,34.6004918 C105.073958,35.2189825 103.59277,35.52243 102.099426,35.4862609 L102.086885,35.4862609 Z M103.946133,16.8972028 C105.755216,16.8972028 107.162977,17.3355527 108.125522,18.1971369 C109.088067,19.0587212 109.580313,20.3888863 109.580313,22.1271704 L109.580313,22.7317909 C109.581153,22.789239 109.55807,22.8446135 109.516232,22.8855226 C109.474393,22.9264316 109.417292,22.94946 109.357705,22.9494543 C107.532946,22.9494543 105.739539,23.0129394 104.027651,23.1368866 C102.493917,23.2313996 100.978351,23.5096493 99.5159177,23.9652168 C98.3300174,24.3220607 97.2654906,24.979891 96.4338925,25.8697714 C95.678279,26.7041477 95.2989046,27.858973 95.2989046,29.3070391 C95.2633772,30.2304359 95.479589,31.146674 95.9259697,31.9643463 C96.3311841,32.6598901 96.8847179,33.2647053 97.5500684,33.7389076 C98.2064602,34.196704 98.9453476,34.5329348 99.7291198,34.7304852 C100.494241,34.927518 101.282413,35.0291169 102.074343,35.0327955 C103.495204,35.0708473 104.905421,34.7860578 106.191026,34.2014423 C107.434188,33.551325 108.485153,32.6066437 109.244833,31.4564651 C109.286885,31.3979328 109.35597,31.3629332 109.429818,31.3627489 L109.542689,31.3627489 C109.66615,31.3627374 109.766718,31.4583593 109.768433,31.5773892 C109.768433,32.1034091 109.796651,32.6415213 109.853087,33.1826567 C109.890711,33.5665907 109.940876,33.9354092 109.994176,34.2800429 C110.019017,34.4278901 110.152387,34.5359111 110.307709,34.5339836 L111.850289,34.5339836 C111.941938,34.5339894 112.029002,34.4953295 112.088574,34.428175 C112.147921,34.3614946 112.174243,34.2732168 112.160686,34.1863268 C112.094845,33.7540231 112.044679,33.2612574 112.00392,32.720122 C111.947484,31.9220229 111.919266,31.12997 111.919266,30.3681481 L111.919266,21.8127677 C111.942824,20.7696611 111.742131,19.7331497 111.329825,18.7685033 C110.966078,17.9452023 110.409041,17.214581 109.702591,16.6341929 C108.986294,16.0597896 108.159503,15.6272895 107.269578,15.3614667 C106.297233,15.0702228 105.284093,14.9254248 104.265936,14.9321861 C102.704562,14.9091495 101.152993,15.1738796 99.6946312,15.7121466 C98.6501707,16.0965264 97.6795294,16.6462138 96.8226729,17.3385758 C96.7037594,17.4500946 96.695514,17.6316253 96.8038609,17.7527409 L97.7444586,18.8380347 C97.7991095,18.9017162 97.8784197,18.9410443 97.9639314,18.9468664 C98.0413495,18.9529631 98.1180905,18.9290238 98.1771336,18.8803581 C98.8680945,18.3113908 99.6493299,17.853099 100.491004,17.5229851 C101.592467,17.0948896 102.771197,16.8821737 103.958674,16.8972028 L103.946133,16.8972028 Z M225.863274,35.4832378 C224.40302,35.4957027 222.954726,35.228537 221.602366,34.6972311 C220.329436,34.1943394 219.176193,33.4465145 218.213079,32.4994355 C217.25769,31.5375525 216.501127,30.4089572 215.983863,29.1740226 C215.429042,27.848862 215.150953,26.4311397 215.165543,25.002141 C215.152053,23.5754998 215.421289,22.159503 215.95878,20.8302593 C216.464982,19.593371 217.216911,18.4637447 218.17232,17.5048464 C220.119685,15.5689224 222.806161,14.4890764 225.603042,14.518021 C227.074339,14.4913448 228.535209,14.7611169 229.892168,15.3100739 C231.076358,15.7982288 232.136486,16.528507 232.999275,17.4504306 C233.83584,18.36701 234.475275,19.434665 234.880471,20.5914342 C235.309119,21.824602 235.521059,23.1181614 235.507536,24.4186822 L235.507536,25.0444644 C235.507477,25.2889382 235.492822,25.5332059 235.463641,25.7760552 C235.452319,25.8862644 235.355892,25.9700732 235.241033,25.9695338 L219.021993,25.9695338 C218.933521,25.9697354 218.849255,26.0059684 218.789979,26.0692962 C218.729206,26.1367291 218.699745,26.2252278 218.708461,26.3141675 C218.78071,27.0423467 218.966753,27.7558038 219.260278,28.4303394 C219.610152,29.2459655 220.122517,29.9875184 220.76837,30.6130195 C221.421007,31.2400643 222.191346,31.7417391 223.038346,32.0913166 C225.204914,32.9533543 227.66474,32.7900916 229.688371,31.6499437 C230.522251,31.1543621 231.257115,30.5185 231.858017,29.7725969 C231.976108,29.6172766 232.155241,29.515611 232.353398,29.4914484 C232.558784,29.4673621 232.765802,29.5216034 232.930298,29.6426035 L234.25027,30.6432505 C234.414988,30.7686334 234.520148,30.952891 234.541856,31.1541548 C234.561296,31.3508959 234.498043,31.5469304 234.366277,31.6983133 C233.352596,32.8878164 232.079869,33.8476738 230.638375,34.5097987 C229.137513,35.1607651 227.508963,35.4927569 225.863274,35.4832378 Z M225.603042,14.9503247 C222.927258,14.9247393 220.357413,15.9571818 218.492123,17.8071567 C217.578594,18.7265487 216.859735,19.8088561 216.375778,20.9935069 C215.85892,22.2686028 215.599266,23.627114 215.610759,24.9960948 C215.597235,26.3679277 215.863562,27.7289409 216.39459,29.0017057 C216.889806,30.186626 217.615624,31.269221 218.532883,32.191079 C219.451521,33.0961433 220.552708,33.8101646 221.768539,34.2891123 C223.062208,34.7977006 224.447429,35.0545544 225.844462,35.0448879 C227.431084,35.0555454 229.001284,34.7348007 230.44712,34.104703 C231.829125,33.4679407 233.049275,32.5463669 234.021392,31.4050723 C234.073707,31.3431796 234.098504,31.2638445 234.090369,31.1843859 C234.081158,31.1006094 234.038414,31.0236029 233.971226,30.9697456 L232.648119,29.9721217 C232.581061,29.9203859 232.494928,29.8974379 232.409834,29.9086365 C232.331425,29.9176296 232.260152,29.9568997 232.212309,30.0174682 C231.580823,30.8061306 230.806447,31.4780213 229.926656,32.0006236 C227.777491,33.2184234 225.160787,33.3952043 222.856497,32.4782738 C221.958864,32.1055844 221.142002,31.5733225 220.448567,30.9092835 C219.761188,30.2428494 219.215828,29.453063 218.84328,28.5845176 C218.533479,27.8723405 218.336877,27.1191751 218.260109,26.3504447 C218.237973,26.1401968 218.308515,25.9306601 218.454499,25.7730321 C218.598779,25.6192181 218.803766,25.5313735 219.018858,25.5311839 L235.034102,25.5311839 C235.034102,25.355844 235.056049,25.1925964 235.056049,25.0384182 L235.056049,24.412636 C235.060613,23.1592042 234.848694,21.9137871 234.428984,20.7274738 C234.040853,19.6243991 233.430292,18.6062324 232.632442,17.7315791 C231.813421,16.8561233 230.806702,16.1629233 229.682101,15.7000542 C228.389644,15.1810835 226.999727,14.9258135 225.599907,14.9503247 L225.603042,14.9503247 Z M168.26734,35.4832378 C166.807086,35.4957027 165.358792,35.228537 164.006433,34.6972311 C162.734038,34.1950338 161.581683,33.4470932 160.620281,32.4994355 C159.66389,31.5377186 158.906268,30.40913 158.387929,29.1740226 C157.834607,27.8484386 157.556575,26.4310062 157.569609,25.002141 C157.555569,23.5751746 157.825924,22.1588899 158.365982,20.8302593 C158.865274,19.5942107 159.610894,18.4644602 160.56071,17.5048464 C162.508827,15.5681563 165.196601,14.4882443 167.994567,14.518021 C169.46584,14.4916115 170.926653,14.7613731 172.283693,15.3100739 C173.467393,15.799069 174.527346,16.5292265 175.3908,17.4504306 C176.226418,18.3676656 176.865738,19.4351286 177.271996,20.5914342 C177.700644,21.824602 177.912584,23.1181614 177.899061,24.4186822 L177.899061,25.0444644 C177.899002,25.2889382 177.884347,25.5332059 177.855166,25.7760552 C177.843844,25.8862644 177.747417,25.9700732 177.632558,25.9695338 L161.413518,25.9695338 C161.326141,25.9705812 161.24318,26.0067414 161.18464,26.0692962 C161.119884,26.1346188 161.08883,26.2244469 161.099986,26.3141675 C161.173504,27.0421351 161.359499,27.7554118 161.651803,28.4303394 C162.001667,29.2467014 162.515226,29.9884403 163.16303,30.6130195 C163.814544,31.2399755 164.58384,31.7416644 165.429871,32.0913166 C167.596439,32.9533543 170.056265,32.7900916 172.079896,31.6499437 C172.914226,31.1549438 173.649191,30.5189948 174.249542,29.7725969 C174.369111,29.6173744 174.549131,29.5158486 174.748059,29.4914484 C174.952432,29.4678476 175.15829,29.5220797 175.321823,29.6426035 L176.641795,30.6432505 C176.806513,30.7686334 176.911673,30.952891 176.933381,31.1541548 C176.954649,31.3510748 176.891179,31.5477831 176.757802,31.6983133 C175.744771,32.8884582 174.471883,33.8484367 173.0299,34.5097987 C171.531927,35.1594932 169.906726,35.491456 168.264205,35.4832378 L168.26734,35.4832378 Z M168.010244,14.9503247 C165.334173,14.9233174 162.76377,15.955984 160.899325,17.8071567 C159.983684,18.7249444 159.264542,19.8076777 158.78298,20.9935069 C158.263631,22.2680095 158.00286,23.626794 158.014825,24.9960948 C158.001301,26.3679277 158.267629,27.7289409 158.798657,29.0017057 C159.295037,30.186043 160.02072,31.268436 160.936949,32.191079 C161.856789,33.0961548 162.958999,33.8101473 164.17574,34.2891123 C165.469196,34.7983929 166.854562,35.0552736 168.251664,35.0448879 C169.838336,35.0560248 171.408641,34.7352585 172.854322,34.104703 C174.236869,33.4687844 175.457196,32.5470768 176.428593,31.4050723 C176.480909,31.3431796 176.505705,31.2638445 176.49757,31.1843859 C176.490809,31.0999011 176.447585,31.0220307 176.378428,30.9697456 L175.055321,29.9721217 C174.988262,29.9203859 174.902129,29.8974379 174.817036,29.9086365 C174.739524,29.9177372 174.669267,29.9570713 174.622646,30.0174682 C173.989975,30.8061798 173.214563,31.4780469 172.333858,32.0006236 C170.184693,33.2184234 167.567989,33.3952043 165.263698,32.4782738 C164.366602,32.1062745 163.550641,31.573907 162.858903,30.9092835 C162.170526,30.2430184 161.624106,29.4532393 161.250481,28.5845176 C160.94068,27.8723405 160.744078,27.1191751 160.667311,26.3504447 C160.645174,26.1401968 160.715716,25.9306601 160.861701,25.7730321 C161.005981,25.6192181 161.210968,25.5313735 161.42606,25.5311839 L177.441303,25.5311839 C177.45698,25.355844 177.463251,25.1925964 177.463251,25.0384182 L177.463251,24.412636 C177.467815,23.1592042 177.255895,21.9137871 176.836186,20.7274738 C176.456552,19.6299158 175.856777,18.6150531 175.070997,17.7406484 C174.250336,16.8656313 173.242706,16.1725418 172.11752,15.7091235 C170.817042,15.1832541 169.417071,14.9248137 168.007108,14.9503247 L168.010244,14.9503247 Z M79.2397662,35.4832378 C77.7784959,35.4957021 76.329177,35.2285438 74.9757232,34.6972311 C73.7037463,34.1942799 72.5515409,33.4464363 71.5895714,32.4994355 C70.6342605,31.536895 69.8767797,30.4085172 69.3572195,29.1740226 C68.8038971,27.8484386 68.5258659,26.4310062 68.5388994,25.002141 C68.5264086,23.5753042 68.7967102,22.1593008 69.3352722,20.8302593 C69.8414741,19.593371 70.5934027,18.4637447 71.5488121,17.5048464 C72.4939612,16.5729357 73.6214452,15.8310583 74.8659868,15.3221663 C76.1669238,14.7911363 77.5668644,14.5226102 78.9795341,14.5331365 C80.4506094,14.5055041 81.9114705,14.7742449 83.2686597,15.3221663 C84.45285,15.8103212 85.5129786,16.5405994 86.3757675,17.462523 C87.2123321,18.3791024 87.8517672,19.4467574 88.256963,20.6035266 C88.6840754,21.8370564 88.8959742,23.1303659 88.8840281,24.4307746 L88.8840281,25.0565568 C88.8824038,25.3009844 88.867753,25.5451701 88.8401336,25.7881477 C88.8288107,25.8983568 88.7323838,25.9821657 88.6175254,25.9816262 L72.414162,25.9816262 C72.32569,25.9818278 72.2414241,26.0180608 72.1821479,26.0813886 C72.1185269,26.1472432 72.0886448,26.2370055 72.1006295,26.3262599 C72.1728791,27.0544391 72.3589217,27.7678962 72.6524468,28.4424318 C73.0023203,29.2580579 73.5146857,29.9996108 74.1605385,30.6251119 C74.8131758,31.2521567 75.5835147,31.7538315 76.4305143,32.1034091 C78.5994994,32.9608711 81.0594149,32.7920111 83.0805402,31.6469206 C83.9144193,31.151339 84.6492837,30.5154769 85.2501856,29.7695738 C85.3682762,29.6142535 85.5474102,29.5125879 85.7455671,29.4884253 C85.9501137,29.4624734 86.1568891,29.5169472 86.3193317,29.6395804 L87.6424391,30.6402274 C87.8071127,30.7652404 87.9113815,30.949922 87.9308891,31.1511317 C87.9536857,31.3481952 87.8900305,31.5454777 87.7553109,31.6952902 C86.7422795,32.8854351 85.4693915,33.8454136 84.0274086,34.5067756 C82.5231831,35.1612097 80.8899885,35.4943074 79.2397662,35.4832378 Z M78.9795341,14.9503247 C76.3034633,14.9233174 73.7330606,15.955984 71.8686154,17.8071567 C70.9540676,18.7257754 70.2350728,19.8082876 69.7522705,20.9935069 C69.2364828,22.2688049 68.9778943,23.6273094 68.9903863,24.9960948 C68.9768622,26.3679277 69.2431898,27.7289409 69.7742178,29.0017057 C70.2706011,30.1892607 70.9986063,31.2739956 71.9187806,32.1971252 C72.8374187,33.1021895 73.938606,33.8162108 75.1544367,34.2951585 C76.4529837,34.8057088 77.8437347,35.0625999 79.2460368,35.0509341 C80.8273788,35.0594107 82.3919916,34.7387149 83.8330184,34.1107492 C85.215023,33.4739869 86.4351732,32.5524131 87.4072897,31.4111185 C87.4596051,31.3492258 87.4844019,31.2698907 87.4762669,31.1904321 C87.4687321,31.1054578 87.4243236,31.0275052 87.3539892,30.9757918 L86.034017,29.9781679 C85.9669587,29.9264321 85.8808259,29.9034841 85.7957323,29.9146827 C85.7173235,29.9236758 85.6460497,29.9629459 85.5982068,30.0235144 C84.9667213,30.8121768 84.1923449,31.4840675 83.3125543,32.0066698 C81.1622716,33.2245369 78.5446077,33.4013043 76.2392594,32.48432 C75.342994,32.1108581 74.5273018,31.5786658 73.8344646,30.9153297 C73.1470858,30.2488956 72.6017261,29.4591093 72.2291778,28.5905638 C71.9197836,27.8780726 71.7221802,27.1251202 71.6428719,26.3564909 C71.6203789,26.1456749 71.692236,25.9356199 71.8403974,25.7790783 C71.9846771,25.6252643 72.1896643,25.5374198 72.4047561,25.5372301 L88.4199999,25.5372301 C88.4356765,25.3618902 88.4419472,25.1986426 88.4419472,25.0444644 L88.4419472,24.4186822 C88.4462198,23.1652728 88.2343082,21.9199018 87.814882,20.73352 C87.4291936,19.6322395 86.8218775,18.6151823 86.0277464,17.7406484 C85.2075517,16.865126 84.1997992,16.1719516 83.0742695,15.7091235 C81.778829,15.1847228 80.3842893,14.9262995 78.9795341,14.9503247 Z M263.17365,34.9723335 L260.756314,34.9723335 C260.42713,34.9725823 260.135008,34.7689536 260.032054,34.4674753 L254.912067,19.5061404 L249.895546,34.4614291 C249.79359,34.7657694 249.499846,34.9720878 249.16815,34.9723335 L246.753949,34.9723335 C246.421083,34.9726296 246.126551,34.7645334 246.026554,34.458406 L239.959699,15.9660872 C239.886647,15.7425745 239.928579,15.4988683 240.07257,15.3100739 C240.216798,15.1154242 240.451598,15.0022265 240.699635,15.0077637 L242.721921,15.0077637 C243.059853,15.0084111 243.357656,15.2219278 243.455587,15.5337835 L248.067651,30.4951185 L253.222126,15.5126218 C253.325081,15.2111435 253.617203,15.0075148 253.946387,15.0077637 L256.025108,15.0077637 C256.353146,15.0080189 256.644503,15.2098988 256.749368,15.5095987 L261.985362,30.4981416 L266.556667,15.5368066 C266.653868,15.2424545 266.92967,15.0366893 267.249574,15.0198561 L269.224829,15.0198561 C269.472866,15.0143189 269.707666,15.1275166 269.851894,15.3221663 C269.995886,15.5109607 270.037817,15.7546669 269.964766,15.9781796 L263.897911,34.4704984 C263.793866,34.7707818 263.502,34.9730136 263.17365,34.9723335 Z M254.868172,18.7201337 L254.955962,18.7201337 C255.053418,18.720861 255.139387,18.7818111 255.169164,18.8712888 L260.458458,34.3314357 C260.502163,34.4612291 260.630631,34.5466993 260.771991,34.5400298 L263.17365,34.5400298 C263.315869,34.5463075 263.444622,34.4594064 263.487183,34.3284126 L269.550903,15.8360938 C269.581551,15.7433879 269.564047,15.6421251 269.503873,15.5640145 C269.444668,15.4858933 269.350259,15.4398163 269.249912,15.4400673 L267.249574,15.4400673 C267.105609,15.4345425 266.976269,15.5243336 266.936041,15.6577307 L262.233053,31.1571779 C262.204042,31.2489128 262.11618,31.31153 262.016715,31.3113562 L261.91952,31.3113562 C261.823738,31.3106978 261.739131,31.2510357 261.709453,31.1632241 L256.275934,15.6577307 C256.2311,15.5291367 256.102911,15.4450883 255.962401,15.4521597 L253.88368,15.4521597 C253.742321,15.4454902 253.613852,15.5309604 253.570148,15.6607538 L248.240094,31.1632241 C248.209229,31.2515074 248.123514,31.3110616 248.026892,31.3113562 L247.939103,31.3113562 C247.840798,31.3102094 247.754567,31.247851 247.7259,31.1571779 L242.947664,15.6698231 C242.907436,15.536426 242.778097,15.4466349 242.634131,15.4521597 L240.611846,15.4521597 C240.508731,15.4472155 240.4097,15.4915351 240.347055,15.5706628 C240.28441,15.6497906 240.266181,15.7535829 240.298314,15.8481862 L246.362034,34.340505 C246.404595,34.4714988 246.533348,34.5583999 246.675566,34.5521222 L249.089767,34.5521222 C249.231986,34.5583999 249.360738,34.4714988 249.4033,34.340505 L254.604805,18.8833812 C254.637916,18.7785305 254.746717,18.713773 254.858766,18.7322261 L254.868172,18.7201337 Z M192.657039,34.9723335 L190.148779,34.9723335 C189.838266,34.9727763 189.55881,34.790746 189.44333,34.5128219 L181.605016,16.020503 C181.510338,15.7933898 181.538671,15.5357839 181.680645,15.3328686 C181.822619,15.1299533 182.05974,15.0081605 182.3136,15.0077637 L184.429945,15.0077637 C184.745048,15.0093315 185.0272,15.1962927 185.141663,15.4793677 L191.412315,31.2569403 L197.736267,15.4793677 C197.850009,15.1957423 198.132608,15.008485 198.447986,15.0077637 L200.438918,15.0077637 C200.69344,15.0061558 200.931842,15.1277052 201.073756,15.3314358 C201.215669,15.5351664 201.242186,15.7939336 201.144366,16.020503 L193.359352,34.5128219 C193.24291,34.7886432 192.96588,34.9698992 192.657039,34.9723335 Z M182.310464,15.4400673 C182.205067,15.4389023 182.106116,15.4888787 182.047097,15.5730839 C181.988978,15.6572911 181.978388,15.7639448 182.018879,15.8572555 L189.857193,34.3495743 C189.904733,34.4646702 190.020292,34.5401497 190.148779,34.5400298 L192.657039,34.5400298 C192.785526,34.5401497 192.901084,34.4646702 192.948625,34.3495743 L200.736774,15.8572555 C200.776347,15.7634473 200.764576,15.6567649 200.70542,15.5730839 C200.647019,15.4897735 200.549477,15.4399158 200.445188,15.4400673 L198.454257,15.4400673 C198.323844,15.4391823 198.206482,15.5162284 198.159536,15.6335459 L191.688224,31.8403991 C191.655361,31.9246322 191.57149,31.9801542 191.478157,31.9794618 L191.374691,31.9794618 C191.281636,31.9792853 191.198227,31.9240697 191.164624,31.8403991 L184.72153,15.6456383 C184.674584,15.5283208 184.557221,15.4512747 184.426809,15.4521597 L182.310464,15.4400673 Z M208.578223,34.9723335 L206.712705,34.9723335 C206.510096,34.9723351 206.315831,34.8945237 206.17286,34.7561023 C206.029888,34.6176809 205.949987,34.4300514 205.95082,34.2346964 L205.95082,15.75447 C205.95082,15.5596383 206.03109,15.3727863 206.173971,15.2350195 C206.316852,15.0972527 206.51064,15.0198561 206.712705,15.0198561 L208.578223,15.0198561 C208.999511,15.0198527 209.341516,15.3482654 209.343243,15.75447 L209.343243,34.2467888 C209.336396,34.6494444 208.995882,34.9723876 208.578223,34.9723335 Z M206.712705,15.4400673 C206.539545,15.4400673 206.399172,15.5754163 206.399172,15.7423776 L206.399172,34.2467888 C206.399172,34.4137502 206.539545,34.5490991 206.712705,34.5490991 L208.578223,34.5490991 C208.751383,34.5490991 208.891756,34.4137502 208.891756,34.2467888 L208.891756,15.75447 C208.891756,15.5875087 208.751383,15.4521597 208.578223,15.4521597 L206.712705,15.4400673 Z M150.154564,34.9723335 L148.29218,34.9723335 C147.869672,34.9723335 147.527161,34.6420821 147.527161,34.2346964 L147.527161,3.73763704 C147.527161,3.33025135 147.869672,3 148.29218,3 L150.154564,3 C150.577072,3 150.919583,3.33025135 150.919583,3.73763704 L150.919583,34.2467888 C150.912736,34.6494444 150.572223,34.9723876 150.154564,34.9723335 Z M148.29218,3.42021127 C148.119021,3.42021127 147.978648,3.55556018 147.978648,3.72252153 L147.978648,34.2467888 C147.978648,34.4137502 148.119021,34.5490991 148.29218,34.5490991 L150.154564,34.5490991 C150.327723,34.5490991 150.468096,34.4137502 150.468096,34.2467888 L150.468096,3.73763704 C150.468096,3.57067569 150.327723,3.43532678 150.154564,3.43532678 L148.29218,3.42021127 Z M102.876987,33.1584719 C102.284918,33.1593668 101.694716,33.0944453 101.118069,32.9649933 C100.545388,32.8399475 99.9999229,32.6189292 99.5065117,32.3120031 C99.0190531,32.0064049 98.615632,31.5914914 98.3307646,31.1027621 C98.0217643,30.5294868 97.8706221,29.8893056 97.891819,29.243554 C97.8569285,28.3468395 98.2316898,27.4804897 98.9170705,26.8734415 C99.6477003,26.2565932 100.512224,25.8051998 101.447278,25.5523456 C102.548829,25.2372054 103.681677,25.0345524 104.827159,24.9477251 C106.059342,24.8509858 107.294661,24.7995931 108.501761,24.7995931 L108.83097,24.7995931 C109.252254,24.8012579 109.592858,25.1310221 109.592855,25.5372301 L109.592855,26.4774151 C109.596298,27.3412299 109.445699,28.1991861 109.147638,29.0137982 C108.860333,29.7986511 108.419713,30.5231513 107.849613,31.1481086 C107.263814,31.7797554 106.544257,32.282839 105.739539,32.6233827 C104.834686,32.9928731 103.859487,33.1751644 102.876987,33.1584719 Z M108.501761,25.2318968 C107.307202,25.2318968 106.084425,25.2802664 104.864783,25.3770057 C103.751647,25.456814 102.650309,25.6493371 101.578962,25.9513952 C100.707,26.1858473 99.9003833,26.6051892 99.2180617,27.1787749 C98.6245958,27.7026109 98.3029907,28.4534809 98.3401705,29.2284384 C98.3195376,29.8001309 98.4512319,30.36738 98.7226803,30.8760294 C98.9701918,31.3098094 99.3244074,31.6783373 99.7542024,31.9492308 C100.20093,32.2334181 100.696819,32.438189 101.2184,32.5538513 C101.762356,32.6746712 102.318785,32.7355234 102.876987,32.7352375 C103.796145,32.7509963 104.708448,32.5800105 105.554555,32.2334025 C106.301447,31.9194357 106.969704,31.454481 107.514134,30.8699832 C108.0456,30.2852512 108.456369,29.6080397 108.724369,28.8747354 C109.006018,28.1068776 109.148148,27.2979196 109.144503,26.4834613 L109.144503,25.5432763 C109.144503,25.376315 109.00413,25.2409661 108.83097,25.2409661 L108.501761,25.2318968 Z M129.709104,32.5538513 C128.565678,32.5772985 127.429672,32.3714066 126.373118,31.9492308 C125.431042,31.5587123 124.586509,30.9783916 123.896211,30.247224 C123.219827,29.5213862 122.696899,28.6752166 122.356766,27.7561875 C121.645972,25.8177183 121.645972,23.7028672 122.356766,21.764398 C122.698349,20.8460279 123.221118,20.0001153 123.896211,19.2733615 C124.588089,18.5406942 125.430543,17.954891 126.369983,17.5532161 C127.422032,17.1091912 128.560828,16.8885533 129.709104,16.9062721 C130.815101,16.8967244 131.910212,17.1173939 132.919678,17.5532161 C135.858429,18.8283474 137.742261,21.6530753 137.726132,24.7602928 C137.741374,25.8471799 137.540213,26.9267941 137.133556,27.9405967 C136.756148,28.8656112 136.187584,29.7069595 135.462427,30.4134947 C134.737434,31.1074372 133.871829,31.6497873 132.919678,32.0066698 C131.894507,32.3814506 130.805403,32.5670678 129.709104,32.5538513 Z M129.709104,17.3204372 C128.626025,17.3025139 127.551547,17.5086869 126.558102,17.9250577 C125.673516,18.3023273 124.880146,18.8531493 124.228555,19.5424176 C123.592478,20.2275446 123.100522,21.0253104 122.780035,21.8913684 C122.102861,23.7337374 122.102861,25.7445247 122.780035,27.5868937 C123.100305,28.4530503 123.592285,29.2508547 124.228555,29.9358445 C124.876661,30.6222618 125.669992,31.1665824 126.554967,31.5320427 C127.552736,31.9364906 128.626905,32.1362221 129.709104,32.1185246 C130.745961,32.127463 131.775378,31.9490462 132.7441,31.5925047 C133.641022,31.2529804 134.455478,30.7383643 135.136353,30.0809534 C135.816655,29.4151207 136.349943,28.6232516 136.704016,27.7531644 C137.091414,26.7895842 137.284041,25.7634381 137.27151,24.7300617 C137.276267,22.8037993 136.510356,20.9499786 135.133218,19.55451 C134.446391,18.8738841 133.632682,18.3241628 132.734694,17.934127 C131.782739,17.5259006 130.750913,17.3197049 129.709104,17.3295065 L129.709104,17.3204372 Z M231.726333,23.708253 L219.106647,23.708253 C218.881293,23.7068835 218.66793,23.6101659 218.523066,23.4437151 C218.378202,23.2772644 218.316451,23.0578733 218.354169,22.8436457 C218.460166,22.2046223 218.660784,21.5835865 218.949881,20.9995531 C219.735258,19.4015936 221.09884,18.1351954 222.784384,17.4383382 C223.676442,17.0729724 224.637014,16.8887636 225.606177,16.8972028 C227.769552,16.8972028 229.462628,17.5320544 230.641511,18.7836188 C231.700568,19.923091 232.349414,21.362022 232.491353,22.8859691 C232.517891,23.0993995 232.446955,23.3134184 232.296962,23.472451 C232.152278,23.6296023 231.944267,23.7188651 231.726333,23.7173223 L231.726333,23.708253 Z M225.599907,17.3204372 C224.694382,17.3127724 223.796883,17.4846125 222.963098,17.8252953 C222.167738,18.1514462 221.442543,18.6179467 220.824806,19.200807 C220.215257,19.7714698 219.717166,20.4432227 219.354338,21.1839623 C219.083882,21.7318112 218.895955,22.3140943 218.79625,22.913177 C218.781447,23.0038762 218.807705,23.0963407 218.868362,23.1671177 C218.927934,23.2342722 219.014998,23.2729321 219.106647,23.2729263 L231.726333,23.2729263 C231.814805,23.2727246 231.899071,23.2364917 231.958347,23.1731639 C232.020636,23.1053554 232.050251,23.0152961 232.039866,22.9252695 C231.906174,21.4918949 231.297097,20.1381897 230.302895,19.0647674 C229.211802,17.9159884 227.631598,17.3295065 225.599907,17.3295065 L225.599907,17.3204372 Z M174.130399,23.7173223 L161.510713,23.7173223 C161.287174,23.716903 161.075104,23.6218478 160.930678,23.4573355 C160.782459,23.2906656 160.718195,23.0693642 160.7551,22.852715 C160.861097,22.2136916 161.061715,21.5926558 161.350812,21.0086224 C161.736922,20.217954 162.268006,19.5010498 162.918475,18.8924505 C163.576307,18.2725448 164.348246,17.7763384 165.194721,17.4292689 C166.086673,17.06357 167.047317,16.8793473 168.016514,16.8881335 C170.176754,16.8881335 171.86983,17.5229851 173.051847,18.7745495 C174.108621,19.9151289 174.756177,21.3536363 174.898554,22.8768998 C174.924686,23.0897669 174.855072,23.3032386 174.707299,23.4633817 C174.562155,23.6245135 174.351745,23.7171322 174.130399,23.7173223 Z M168.003973,17.3295065 C167.097402,17.3215129 166.19881,17.4933579 165.364029,17.8343646 C164.569088,18.1612632 163.844029,18.6276762 163.225737,19.2098763 C162.617472,19.7816032 162.119557,20.4531194 161.755269,21.1930316 C161.484813,21.7408805 161.296886,22.3231636 161.197181,22.9222464 C161.180563,23.01354 161.208298,23.1071387 161.272429,23.176187 C161.332001,23.2433415 161.419064,23.2820014 161.510713,23.2819956 L174.130399,23.2819956 C174.217777,23.2809482 174.300737,23.244788 174.359278,23.1822332 C174.423807,23.1156689 174.453756,23.024593 174.440797,22.9343388 C174.308204,21.5012694 173.700215,20.1475408 172.706962,19.0738367 C171.622139,17.9159884 170.035664,17.3295065 168.007108,17.3295065 L168.003973,17.3295065 Z M85.1059606,23.7173223 L72.4862745,23.7173223 C72.2630165,23.7156909 72.0514455,23.6208593 71.9062393,23.4573355 C71.7591728,23.2900737 71.6950594,23.0692931 71.730661,22.852715 C71.8396054,22.2143613 72.0400966,21.5937186 72.3263729,21.0086224 C72.7134299,20.2184895 73.2443991,19.5017398 73.8940358,18.8924505 C74.552968,18.2738554 75.324639,17.7778218 76.1702823,17.4292689 C77.0622339,17.06357 78.022878,16.8793473 78.9920754,16.8881335 C81.1554502,16.8881335 82.8485261,17.5229851 84.0274086,18.7745495 C85.0851308,19.9148471 85.7337757,21.3533312 85.8772507,22.8768998 C85.9021272,23.0901745 85.8314047,23.3035464 85.6828605,23.4633817 C85.5379707,23.6248415 85.3273961,23.7175325 85.1059606,23.7173223 Z M78.9795341,17.3295065 C78.074009,17.3218417 77.1765101,17.4936818 76.3427252,17.8343646 C75.5473653,18.1605155 74.8221702,18.627016 74.204433,19.2098763 C73.594205,19.7799757 73.0960208,20.4518548 72.7339653,21.1930316 C72.4635091,21.7408805 72.2755826,22.3231636 72.1758773,22.9222464 C72.1584162,23.0130706 72.1849784,23.1066082 72.2479898,23.176187 C72.3075618,23.2433415 72.3946253,23.2820014 72.4862745,23.2819956 L85.1059606,23.2819956 C85.193951,23.2825697 85.2781419,23.2474659 85.3379747,23.1852563 C85.4000785,23.1161463 85.4296055,23.025261 85.4194932,22.9343388 C85.2858017,21.5009643 84.6767239,20.147259 83.6825227,19.0738367 C82.5788881,17.9159884 81.0112252,17.3295065 78.9795341,17.3295065 Z" id="Shape" fill="#00729E" fill-rule="nonzero"></path>
                    <path d="M19.7307692,0 L28.6427231,0 C28.7584283,-3.10511107e-06 28.8693488,0.0465168309 28.9508666,0.129235009 C29.0323845,0.211953188 29.0777561,0.324026776 29.0769115,0.440581767 L29.0769115,8.56261085 C29.0769115,8.80417421 28.8825187,9 28.6427231,9 L19.7307692,9" id="Path" fill="#8CCC4C"></path>
                    <path d="M0.420559381,4.05576421e-08 L21.8076923,0 L21.8076923,9 L0.420559381,9 C0.188290849,9 0,8.80417421 0,8.56261086 L0,0.424618698 C0.00664396632,0.188056779 0.193002847,-0.000100854236 0.420559381,4.05576602e-08 Z" id="Path" fill="#0098C5"></path>
                    <path d="M19.7307692,37 L28.6427231,37 C28.7584283,36.9999969 28.8693488,37.0465168 28.9508666,37.129235 C29.0323845,37.2119532 29.0777561,37.3240268 29.0769115,37.4405818 L29.0769115,45.5626109 C29.0769115,45.8041742 28.8825187,46 28.6427231,46 L19.7307692,46" id="Path" fill="#8CCC4C"></path>
                    <path d="M0.420559381,37 L21.8076923,37 L21.8076923,46 L0.420559381,46 C0.188290849,46 0,45.8044517 0,45.5632306 L0,37.4367694 C0.00167206813,37.1962713 0.188986978,37.0017365 0.420559381,37 Z" id="Path" fill="#0098C5"></path>
                    <path d="M6.23076923,18 L28.643095,18.0381623 C28.8824834,18.0416154 29.0752133,18.2351711 29.0769231,18.4738491 L29.0769231,26.5674468 C29.0760854,26.6835562 29.0287937,26.7945291 28.9455455,26.8757325 C28.8622972,26.956936 28.74998,27.0016514 28.6335252,26.9999533 L6.23076923,26.9649712" id="Path" fill="#8CCC4C"></path>
                    <path d="M0.409879662,18 L10.3846154,18 L10.3846154,27 L0.409879662,27 C0.184187827,26.998261 0.0016296075,26.8034502 0,26.5626109 L0,18.4373891 C0,18.1958258 0.183509376,18 0.409879662,18 Z" id="Path" fill="#0098C5"></path>
                    <path d="M57.7278116,0 L48.0723698,0 C47.92007,0.0021088509 47.7805594,0.083998828 47.706657,0.214666148 L30.1711993,45.47549 C30.0086603,45.7576227 30.2212113,46.0060221 30.5494151,45.9998888 L39.9266652,45.9998888 C40.0838514,45.9866134 40.2231041,45.8951473 40.2955037,45.7576227 L58.1060274,0.631731806 C58.1742244,0.499510072 58.1692061,0.342338438 58.0927077,0.214563613 C58.0162094,0.0867887886 57.8787317,0.00595013802 57.7278116,0 Z" id="Path" fill="#8CCC4C"></path>
                    <path d="M57.7278116,0 L48.0723698,0 C47.92007,0.0021088547 47.7805594,0.0839989792 47.706657,0.214666534 L30.1711993,45.4755719 C30.0086603,45.757705 30.2212113,46.0030382 30.5494151,45.9999716 L39.9266652,45.9999716 C40.0834508,45.9855842 40.2222088,45.8944429 40.2955037,45.757705 L58.1060274,0.631732943 C58.1742244,0.499510971 58.1692061,0.342339054 58.0927077,0.214563999 C58.0162094,0.0867889448 57.8787317,0.00595014873 57.7278116,0 Z" id="Path" fill="url(#linearGradient-1)"></path>
                </g>
            </g>
        </g>
    </g>
</svg>