<?xml version="1.0" encoding="utf-8"?>
<!-- Generator: Adobe Illustrator 26.0.1, SVG Export Plug-In . SVG Version: 6.00 Build 0)  -->
<svg version="1.1" id="Layer_1" xmlns="http://www.w3.org/2000/svg" xmlns:xlink="http://www.w3.org/1999/xlink" x="0px" y="0px"
	 width="151px" height="44.9px" viewBox="0 0 151 44.9" style="enable-background:new 0 0 151 44.9;" xml:space="preserve">
<style type="text/css">
	.st0{fill:#00358E;}
	.st1{fill:#2A7DE1;}
</style>
<g>
	<path class="st0" d="M107.9,16.4c0.1,0,0.1,0.1,0.1,0.2v3.8c0,0.1-0.1,0.2-0.2,0.2c-0.5-0.2-1.7-0.6-3.4-0.5c-1,0-2,0.2-2.9,0.5
		c-0.1,0-0.1,0.1-0.1,0.2l0,14c0,0.1-0.1,0.2-0.2,0.2h-4c-0.1,0-0.2-0.1-0.2-0.2l0-16.8c0-0.1,0-0.1,0.1-0.2
		c0.5-0.3,3.3-1.8,7.2-1.8C106.1,16,107.5,16.3,107.9,16.4z M94,24.4v2c0,0.1-0.1,0.2-0.2,0.2H81.3c-0.1,0-0.2,0.1-0.2,0.2
		c0.2,1.4,0.8,2.6,1.9,3.5c1.1,0.8,2.4,1.3,3.9,1.3c3,0,5.3-1.2,6-1.7c0.1-0.1,0.3,0,0.3,0.2l0,3.4c0,0.1,0,0.1-0.1,0.1
		c-0.4,0.3-2.6,1.7-6.5,1.7c-2.9,0-5.3-0.9-7.1-2.6c-1.8-1.7-2.7-4.1-2.7-7c0-2.9,0.9-5.3,2.6-7.2c1.6-1.8,3.9-2.7,6.4-2.7
		C91,15.8,94,19,94,24.4z M89.7,23.8c0.1,0,0.2-0.1,0.2-0.2c-0.2-2.7-1.6-4.1-4.1-4.1c-2.2,0-3.9,1.5-4.5,4c0,0.1,0.1,0.2,0.2,0.2
		L89.7,23.8z M130,25.7c-1-0.9-2.4-1.6-4.6-2c-2.1-0.6-2.8-1.2-2.8-2.3c0-1.2,1-2,2.7-2c2.3-0.1,4.3,1.2,5,1.7
		c0.1,0.1,0.3,0,0.3-0.1l0-3.6c0-0.1,0-0.1-0.1-0.1c-0.4-0.3-2.4-1.4-5.3-1.4c-0.5,0-1.1,0-1.6,0.1c-2.9,0.3-5,2.7-5.1,5.5
		c0,3.2,1.5,4.9,5.5,5.8c2.3,0.6,3.4,1.1,3.4,2.6c0,1.6-1.6,2-2.9,2c-2.5,0-4.7-1.4-5.4-2c-0.1-0.1-0.3,0-0.3,0.1l0,3.7
		c0,0.1,0,0.1,0.1,0.1c0.4,0.3,2.3,1.5,5.7,1.5c2.1,0,3.8-0.5,5-1.4c1.3-1,2-2.5,2-4.3C131.5,27.9,131,26.7,130,25.7z M113.1,13.5
		c1.5,0,2.7-1.3,2.7-2.7c0-1.5-1.2-2.7-2.7-2.7c-1.5,0-2.7,1.2-2.7,2.7C110.4,12.2,111.6,13.5,113.1,13.5z M111.1,34.9h4
		c0.1,0,0.2-0.1,0.2-0.2V16.4c0-0.1-0.1-0.2-0.2-0.2h-4c-0.1,0-0.2,0.1-0.2,0.2v18.3C110.9,34.8,111,34.9,111.1,34.9z M142.5,24.6
		l7.8-8.1c0.1-0.1,0-0.3-0.1-0.3h-4.8c0,0-0.1,0-0.1,0.1l-6.4,6.9c-0.1,0.1-0.3,0-0.3-0.1v-13c0-0.1-0.1-0.2-0.2-0.2l-4,0
		c-0.1,0-0.2,0.1-0.2,0.2v24.6c0,0.1,0.1,0.2,0.2,0.2l4,0c0.1,0,0.2-0.1,0.2-0.2v-8c0-0.2,0.2-0.2,0.3-0.1l6.7,8.3
		c0,0,0.1,0.1,0.1,0.1h4.7c0.2,0,0.2-0.2,0.1-0.3l-8-9.8C142.4,24.8,142.4,24.7,142.5,24.6z M74.6,10.1L66,29.6
		c-0.1,0.1-0.3,0.1-0.3,0l-8.6-19.6C57.1,10,57,10,57,10h-4.4c-0.1,0-0.2,0.1-0.2,0.3l10,22.8c1.3,3,5.6,3,6.9,0l10-22.8
		c0.1-0.1,0-0.3-0.2-0.3h-4.4C74.7,10,74.7,10,74.6,10.1z M3.3,10.8c0.3-0.5,0.9-0.8,1.5-0.8l7.1,0c0.3,0,0.4,0.3,0.3,0.5l-1.9,4.3
		c-0.1,0.1-0.2,0.2-0.3,0.2l-8.2,0c-0.3,0-0.4-0.3-0.3-0.5C2,13.1,2.6,11.9,3.3,10.8z M9.6,5C9.3,5,9.1,4.5,9.4,4.3
		C13.2,1.6,17.9,0,23,0c5.1,0,9.7,1.6,13.5,4.4C36.8,4.6,36.6,5,36.3,5L9.6,5z M15.8,40.1c0.1-0.1,0.2-0.2,0.3-0.2L36.2,40
		c0.3,0,0.5,0.4,0.2,0.6c-3.8,2.7-8.5,4.3-13.5,4.3c-2.9,0-5.6-0.5-8.1-1.5c-0.2-0.1-0.3-0.3-0.2-0.5L15.8,40.1z M18.3,34.4l1.9-4.3
		c0.1-0.1,0.2-0.2,0.3-0.2L44,30c0.3,0,0.4,0.3,0.3,0.5c-0.5,1.3-1.1,2.5-1.8,3.7c-0.3,0.5-0.9,0.8-1.5,0.8l-22.3-0.1
		C18.4,34.9,18.2,34.6,18.3,34.4z M45.7,20.3c0.1,0.7,0.1,1.4,0.1,2.2c0,0.7,0,1.5-0.1,2.2c0,0.2-0.2,0.3-0.4,0.3L23,24.9
		c-0.3,0-0.4-0.3-0.3-0.5l1.2-2.8l0,0c0.5-1,1.5-1.7,2.6-1.7l18.8,0C45.5,20,45.7,20.2,45.7,20.3z"/>
	<path class="st1" d="M44.3,14.5c-0.5-1.3-1.1-2.5-1.8-3.7C42.2,10.3,41.6,10,41,10H19.7c-1.1,0-2,0.6-2.5,1.6l-7.1,16.1
		c0,0.1-0.1,0.1-0.2,0.1c-0.1,0-0.1,0-0.2-0.1l-2.7-6.2c-0.4-1-1.4-1.6-2.5-1.6H0.5c-0.2,0-0.3,0.1-0.4,0.3C0,21,0,21.7,0,22.5
		c0,0.7,0,1.4,0.1,2.2c0,0.2,0.2,0.3,0.4,0.3h2.1c0.1,0,0.3,0.1,0.3,0.2c0.6,1.3,3.5,8,5.4,12.3c0.3,0.7,1,1.1,1.6,1.1
		c0.7,0,1.3-0.4,1.6-1.1l9.2-20.9c0.4-1,1.4-1.6,2.5-1.6H44C44.2,15,44.4,14.7,44.3,14.5z"/>
</g>
</svg>
