<svg xmlns="http://www.w3.org/2000/svg" viewBox="0 0 49.418 61.73"><defs><style>.cls-1{fill:#fff;}.cls-2{fill:#333;}</style></defs><circle class="cls-1" cx="11.914" cy="39.239" r="4.932"/><path class="cls-1" d="M35.831,43.373V21.425C30.124,21.425,25.5,26.336,25.5,32.4S30.124,43.373,35.831,43.373Z" transform="translate(-19.555 -13.51)"/><polygon class="cls-1" points="21.125 45.92 29.795 45.92 29.87 21.057 21.201 21.057 21.125 45.92"/><path class="cls-1" d="M49.885,27.248l-3.478-5.487a1.723,1.723,0,0,0-2.908,0l-3.477,5.487a1.721,1.721,0,0,0,1.454,2.641h6.955a1.722,1.722,0,0,0,1.454-2.641Z" transform="translate(-19.555 -13.51)"/><path class="cls-2" d="M31.469,46.789a5.961,5.961,0,1,0,5.953,5.967v-.007A5.96,5.96,0,0,0,31.469,46.789Zm0,9.863a3.91,3.91,0,1,1,3.9-3.916v.013A3.909,3.909,0,0,1,31.469,56.652Z" transform="translate(-19.555 -13.51)"/><path class="cls-2" d="M35.831,44.4A1.022,1.022,0,0,0,36.86,43.38V21.425A1.029,1.029,0,0,0,35.831,20.4c-6.262,0-11.358,5.384-11.358,12S29.569,44.4,35.831,44.4ZM34.809,22.5V42.29a9.764,9.764,0,0,1-8.285-9.9A9.756,9.756,0,0,1,34.809,22.5Z" transform="translate(-19.555 -13.51)"/><path class="cls-2" d="M65.3,23.154l-6.173-6.173a11.847,11.847,0,0,0-8.375-3.471H19.555V66.741l14.637,8.5H57.258A11.715,11.715,0,0,0,68.973,63.525V31.46A12.077,12.077,0,0,0,65.3,23.154ZM54.322,59.944a4.162,4.162,0,0,1-4.135,4.191H22.2V16.123h27.95a4.164,4.164,0,0,1,4.164,4.164h0Z" transform="translate(-19.555 -13.51)"/><path class="cls-2" d="M49.425,33.538H40.756a1.021,1.021,0,0,0-1.022,1.022l-.076,24.87a1.03,1.03,0,0,0,1.022,1.029h8.677a1.023,1.023,0,0,0,1.022-1.022l.068-24.87a1.022,1.022,0,0,0-1.015-1.029Zm-1.09,24.87H41.709l.069-22.819H48.4Z" transform="translate(-19.555 -13.51)"/><path class="cls-2" d="M47.272,21.206a2.744,2.744,0,0,0-2.319-1.276h0a2.743,2.743,0,0,0-2.318,1.276l-3.477,5.487A2.744,2.744,0,0,0,41.476,30.9h6.955a2.743,2.743,0,0,0,2.4-1.42,2.7,2.7,0,0,0-.082-2.791Zm1.769,7.3a.686.686,0,0,1-.61.357H41.476a.685.685,0,0,1-.59-1.07l3.477-5.487a.686.686,0,0,1,.944-.224.674.674,0,0,1,.215.21L49,27.783A.685.685,0,0,1,49.041,28.51Z" transform="translate(-19.555 -13.51)"/></svg>