<svg xmlns="http://www.w3.org/2000/svg" viewBox="0 0 88 89"><defs><style>.cls-1{fill:#272626;}</style></defs><path class="cls-1" d="M24.51,38.18H34.65A4,4,0,0,0,38,32L33,24a4,4,0,0,0-6.76,0l-5.07,8a4,4,0,0,0,3.38,6.14Zm-.86-4.54,5.07-8a1,1,0,0,1,1.72,0l5.07,8a1,1,0,0,1,0,1,1,1,0,0,1-.89.53H24.51a1,1,0,0,1-.86-1.56Z"/><path class="cls-1" d="M49.13,38.18a.49.49,0,0,0,.4.21h1.12a.49.49,0,0,0,.46-.32l1.07-3h3.9l1,3a.47.47,0,0,0,.46.33h1.23a.47.47,0,0,0,.39-.21.46.46,0,0,0,.06-.44L55.49,27.45a.93.93,0,0,0-.87-.61h-.8a.92.92,0,0,0-.87.6l-3.88,10.3A.49.49,0,0,0,49.13,38.18Zm3.69-4.88,1.33-3.63L55.4,33.3Z"/><path class="cls-1" d="M65.13,33,63,33.23a3.64,3.64,0,0,0-2,.82,2.5,2.5,0,0,0-.79,2A2.57,2.57,0,0,0,61,37.9a2.85,2.85,0,0,0,2,.76,4,4,0,0,0,1.82-.43,4.22,4.22,0,0,0,.88-.59,2,2,0,0,0,.14.29,1.4,1.4,0,0,0,1.26.63,3.1,3.1,0,0,0,.49,0,2.74,2.74,0,0,0,.52-.12l.22-.06V36.78l-.36.06-.21,0h-.17c-.08,0-.12,0-.12,0a.35.35,0,0,1,0-.16v-4.6a2.09,2.09,0,0,0-1-1.92A4.59,4.59,0,0,0,64,29.61a4.27,4.27,0,0,0-2.29.63,2.21,2.21,0,0,0-1,1.43l-.09.38h2l.08-.12a.35.35,0,0,0,.07-.15A1.53,1.53,0,0,1,64,31.35a2.41,2.41,0,0,1,1.24.26.82.82,0,0,1,.35.75.88.88,0,0,1-.06.38C65.48,32.82,65.4,32.93,65.13,33Zm-1.46,1.88.81-.1a4.72,4.72,0,0,0,.8-.16l.26-.08V35a1.83,1.83,0,0,1-1.08,1.69,1.94,1.94,0,0,1-1.93,0,.81.81,0,0,1-.31-.68.89.89,0,0,1,.47-.85A3.06,3.06,0,0,1,63.67,34.84Z"/><path class="cls-1" d="M66.31,44.36h-14a1.5,1.5,0,0,0,0,3h14a1.5,1.5,0,0,0,0-3Z"/><path class="cls-1" d="M66.31,52.36h-14a1.5,1.5,0,0,0,0,3h14a1.5,1.5,0,0,0,0-3Z"/><path class="cls-1" d="M66.31,60.36h-14a1.5,1.5,0,0,0,0,3h14a1.5,1.5,0,0,0,0-3Z"/><path class="cls-1" d="M29.58,50.35A8.68,8.68,0,1,0,38.26,59,8.68,8.68,0,0,0,29.58,50.35Zm0,14.38a5.7,5.7,0,1,1,0-11.4A5.6,5.6,0,0,1,33,54.49l-3.82,4.58-.84-.84a1.49,1.49,0,1,0-2.11,2.11l2,2a1.48,1.48,0,0,0,1.05.43h.07a1.5,1.5,0,0,0,1.08-.53l4.43-5.33A5.57,5.57,0,0,1,35.28,59,5.71,5.71,0,0,1,29.58,64.73Z"/><path class="cls-1" d="M72.81,13.51H15.19A1.49,1.49,0,0,0,13.7,15V74a1.49,1.49,0,0,0,1.49,1.49H72.81A1.49,1.49,0,0,0,74.3,74V15A1.49,1.49,0,0,0,72.81,13.51Zm-30,3V43.2H16.68V16.49ZM16.68,46.18H42.82V72.51H16.68ZM71.32,72.51H45.8v-56H71.32Z"/></svg>