<svg version="1.1" id="Layer_1" xmlns="http://www.w3.org/2000/svg" x="0" y="0" viewBox="0 0 49.4 61.7" xml:space="preserve"><style>.st0{fill:#fff}.st1{fill:#333}</style><path class="st0" d="M8.3 16.4h7c1 0 1.7-.8 1.7-1.7 0-.3-.1-.6-.3-.9l-3.5-5.5c-.5-.8-1.6-1-2.4-.5-.2.1-.4.3-.5.5l-3.5 5.5c-.5.8-.3 1.9.5 2.4.3.1.7.2 1 .2z"/><circle class="st0" cx="11.8" cy="25.4" r="4.8"/><path class="st0" d="M21.1 21.1h8.7v8.7h-8.7zM18.4 45.9c6.3 0 11.4-5.1 11.4-11.4H6.9c0 6.3 5.1 11.4 11.5 11.4z"/><circle class="st0" cx="25.5" cy="11.8" r="4.9"/><path class="st1" d="M49.4 17.9c-.1-3.1-1.4-6.1-3.7-8.3l-6.2-6.2C37.3 1.2 34.3 0 31.2 0H0v53.2l14.6 8.5h23.1c6.5 0 11.7-5.2 11.7-11.7V17.9zM34.7 46.4c0 2.3-1.8 4.2-4.1 4.2h-28v-48h27.9c2.3 0 4.2 1.9 4.2 4.2v39.6z"/><path class="st1" d="M8.3 17.4h7c1 0 1.9-.5 2.4-1.4.5-.9.4-1.9-.1-2.8l-3.5-5.5c-.8-1.3-2.5-1.7-3.8-.9l-.9.9L6 13.2c-.6.8-.6 1.9-.1 2.8.5.9 1.4 1.4 2.4 1.4zm-.6-3.1l3.5-5.5c.2-.3.6-.4.9-.2.1.1.2.1.2.2l3.5 5.5c.1.2.1.5 0 .7-.1.2-.4.4-.6.4H8.3c-.3 0-.5-.1-.6-.4-.1-.3-.1-.5 0-.7zM11.8 19.6c-3.2 0-5.8 2.6-5.8 5.8s2.6 5.8 5.8 5.8 5.8-2.6 5.8-5.8c0-3.2-2.6-5.8-5.8-5.8zm0 9.6c-2.1 0-3.8-1.7-3.8-3.8s1.7-3.8 3.8-3.8c2.1 0 3.8 1.7 3.8 3.8-.1 2.1-1.8 3.8-3.8 3.8zM29.8 30.8c.6 0 1-.5 1-1v-8.7c0-.6-.5-1-1-1h-8.6c-.6 0-1 .5-1 1v8.7c0 .6.5 1 1 1h8.6zm-7.6-8.7h6.6v6.6h-6.6v-6.6zM29.8 33.4H6.9c-.6 0-1 .5-1 1 0 6.9 5.6 12.5 12.5 12.5s12.5-5.6 12.5-12.5c-.1-.5-.5-1-1.1-1zM18.4 44.9c-5.4 0-9.8-4.1-10.4-9.4h20.7c-.5 5.3-5 9.4-10.3 9.4zM25.5 5.8c-3.3 0-6 2.7-5.9 6 0 3.3 2.7 6 6 5.9 3.3 0 5.9-2.7 5.9-6 0-3.2-2.7-5.9-6-5.9zm0 9.9c-2.2 0-3.9-1.7-3.9-3.9s1.7-3.9 3.9-3.9 3.9 1.7 3.9 3.9c0 2.1-1.8 3.9-3.9 3.9z"/></svg>