<svg xmlns="http://www.w3.org/2000/svg" viewBox="0 0 88 89"><defs><style>.cls-1{fill:#272626;}.cls-2{fill:#fff;}</style></defs><path class="cls-1" d="M64.25,20.24h4.5a2.5,2.5,0,1,0,0-3H59.61v-.5a3,3,0,0,0-3-3h-4a3,3,0,0,0-3,3v.5H41.25a2.51,2.51,0,1,0,0,3h3a18.37,18.37,0,1,0,20,0ZM54.25,51a15.38,15.38,0,0,1-4.59-30.06,3,3,0,0,0,3,2.79h4a3,3,0,0,0,2.94-2.53A15.37,15.37,0,0,1,54.25,51Z"/><path class="cls-2" d="M62.38,41.75h-31v-14h31Z"/><path class="cls-1" d="M40.48,35.2l-3.35,5.28A1.66,1.66,0,0,0,38.53,43h6.69a1.66,1.66,0,0,0,1.4-2.54L43.27,35.2A1.65,1.65,0,0,0,40.48,35.2Z"/><path class="cls-2" d="M47.25,32.71l-5,7.94a2.49,2.49,0,0,0,2.11,3.82H54.38a2.49,2.49,0,0,0,2.11-3.82l-5-7.94A2.49,2.49,0,0,0,47.25,32.71Z"/><path class="cls-1" d="M62.38,26.25h-31a1.5,1.5,0,0,0-1.5,1.5v14a1.5,1.5,0,0,0,1.5,1.49H36a3.14,3.14,0,0,0,2.52,1.27h2.73A3.89,3.89,0,0,0,44.33,46H54.38a3.93,3.93,0,0,0,3.49-2.06,3.19,3.19,0,0,0,.28-.66h4.23a1.49,1.49,0,0,0,1.49-1.49v-14A1.5,1.5,0,0,0,62.38,26.25ZM48.51,33.5h0a1,1,0,0,1,1.69,0l4.27,6.75H48.14a4.17,4.17,0,0,0-.26-.57L46.24,37.1Zm-3.8,6.75h-.47l.24-.36ZM41,39.86a2.93,2.93,0,0,0-.21.39H39L41.74,36a.15.15,0,0,1,.14-.07A.14.14,0,0,1,42,36l.7,1.11Zm19.92.39H58a2.93,2.93,0,0,0-.21-.39l-5-7.95a4,4,0,0,0-6.73,0l-1.52,2.41a3.13,3.13,0,0,0-5.25.08l-3.35,5.28a4.17,4.17,0,0,0-.26.57H32.87v-11h28Z"/><rect class="cls-2" x="18.38" y="15.42" width="13" height="24.32"/><rect class="cls-2" x="15.25" y="39.75" width="57.5" height="34"/><path class="cls-1" d="M72.75,38.25H15.25a1.5,1.5,0,0,0-1.49,1.5v34a1.49,1.49,0,0,0,1.49,1.49h57.5a1.49,1.49,0,0,0,1.49-1.49v-34A1.5,1.5,0,0,0,72.75,38.25Zm-9.87,3v31h-38v-31Zm-46.14,0h5.14v31H16.74Zm54.52,31H65.87v-31h5.39Z"/><path class="cls-1" d="M32.5,60.74h23A1.49,1.49,0,0,0,57,59.25v-5a1.5,1.5,0,0,0-1.49-1.5h-23A1.5,1.5,0,0,0,31,54.25v5A1.49,1.49,0,0,0,32.5,60.74Zm1.49-5H54v2H34Z"/><path class="cls-1" d="M31.38,13.93h-13a1.5,1.5,0,0,0-1.5,1.49V39.75a1.5,1.5,0,0,0,1.5,1.49h13a1.49,1.49,0,0,0,1.49-1.49V15.42A1.49,1.49,0,0,0,31.38,13.93Zm-1.5,24.32h-10v-3h5.51a1.5,1.5,0,0,0,0-3H19.87v-3h3.51a1.5,1.5,0,0,0,0-3H19.87v-3h5.51a1.5,1.5,0,0,0,0-3H19.87V16.92h10Z"/><polyline class="cls-2" points="56.63 16.75 56.63 20.75 52.63 20.75 52.63 16.75 56.63 16.75"/></svg>
